<svg id="Layer_1" data-name="Layer 1" xmlns="http://www.w3.org/2000/svg" viewBox="0 0 350 100.44"><defs><style>.cls-2,.cls-5,.cls-8{fill:none;stroke-miterlimit:10}.cls-2,.cls-8{stroke:#fff}.cls-2,.cls-5{stroke-width:.45px}.cls-3{fill:#0d8b44}.cls-4{fill:#f8dfea}.cls-5{stroke:#ae6487}.cls-6{fill:#fffbfd}.cls-7{font-size:26.09px;font-family:MerriweatherUltraBold-Italic,MerriweatherUltraBold;font-style:italic;fill:#ae6487}.cls-8{stroke-width:.89px}</style></defs><path d="M176.32 63.49c-.1-1.82-.12-2.27-1.64-3.36-3.24-2.32-7.56-4-11.62-3-1.07.26.62.76 1.65 1 1.74.48 4.63 2.41 5.21 4.53a5.75 5.75 0 0 0 2.5 3.43 37.64 37.64 0 0 1 3.09 2.5c.38.4.8.84 1.19 1.21-.08-.63-.12-1.65-.2-2.23-.18-1.27-.13-3.06-.18-4.1" fill="#0d8a44"/><path class="cls-2" d="M176.32 63.49c-.1-1.82-.12-2.27-1.64-3.36-3.24-2.32-7.56-4-11.62-3-1.07.26.62.76 1.65 1 1.74.48 4.63 2.41 5.21 4.53a5.75 5.75 0 0 0 2.5 3.43 37.64 37.64 0 0 1 3.09 2.5c.38.4.8.84 1.19 1.21-.08-.63-.12-1.65-.2-2.23-.18-1.25-.13-3.04-.18-4.08z"/><path class="cls-3" d="M192.13 38c-4.06 2.12-10.49 12.35-13.15 20.93a15.09 15.09 0 0 1-1.27 3.29 7.93 7.93 0 0 1-1-2.44c-1.45-4.58-5.73-12.48-8.46-15.64-2.48-2.86-4.71-4.73-5.15-4.3a8.9 8.9 0 0 0 1.75 2.54c2.9 3.47 6.59 10.53 8.49 16.26 2.36 7.1 2.92 8.19 2.12 12.48h4.65a31.15 31.15 0 0 1-.6-3.12 76.72 76.72 0 0 1 2-7.43c2.3-7.71 6.55-16.61 9.6-20.09 2.09-2.38 2.43-3.19 1.07-2.48"/><path class="cls-2" d="M192.13 38c-4.06 2.12-10.49 12.35-13.15 20.93a15.09 15.09 0 0 1-1.27 3.29 7.93 7.93 0 0 1-1-2.44c-1.45-4.58-5.73-12.48-8.46-15.64-2.48-2.86-4.71-4.73-5.15-4.3a8.9 8.9 0 0 0 1.75 2.54c2.9 3.47 6.59 10.53 8.49 16.26 2.36 7.1 2.92 8.19 2.12 12.48h4.65a31.15 31.15 0 0 1-.6-3.12 76.72 76.72 0 0 1 2-7.43c2.3-7.71 6.55-16.61 9.6-20.09 2.04-2.39 2.38-3.2 1.02-2.48z"/><path class="cls-4" d="M162.06 18c0 3-.67 10.25-2.12 10.25h-.87c-1.45 0-2.12-7.3-2.12-10.22 0-4.43 1.35-10.25 2.53-10.25s2.58 5.8 2.58 10.22"/><path class="cls-5" d="M162.06 18c0 3-.67 10.25-2.12 10.25h-.87c-1.45 0-2.12-7.3-2.12-10.22 0-4.43 1.35-10.25 2.53-10.25s2.58 5.76 2.58 10.22z"/><path class="cls-4" d="M156.65 47.48c0-2.92.65-10.09 2.08-10.09h.86c1.43 0 2.08 7.18 2.08 10.07 0 4.35-1.32 10.08-2.48 10.08s-2.54-5.7-2.54-10.06"/><path class="cls-5" d="M156.65 47.48c0-2.92.65-10.09 2.08-10.09h.86c1.43 0 2.08 7.18 2.08 10.07 0 4.35-1.32 10.08-2.48 10.08s-2.54-5.7-2.54-10.06z"/><path class="cls-4" d="M145.3 30.06c2.74 0 9.48.7 9.48 2.22v.91c0 1.52-6.75 2.22-9.46 2.22-4.1 0-9.49-1.41-9.49-2.65s5.37-2.7 9.47-2.7"/><path class="cls-5" d="M145.3 30.06c2.74 0 9.48.7 9.48 2.22v.91c0 1.52-6.75 2.22-9.46 2.22-4.1 0-9.49-1.41-9.49-2.65s5.37-2.7 9.47-2.7z"/><path class="cls-4" d="M173 30.06c-2.74 0-9.48.7-9.48 2.22v.91c0 1.52 6.75 2.22 9.46 2.22 4.1 0 9.49-1.41 9.49-2.65s-5.37-2.7-9.47-2.7"/><path class="cls-5" d="M173 30.06c-2.74 0-9.48.7-9.48 2.22v.91c0 1.52 6.75 2.22 9.46 2.22 4.1 0 9.49-1.41 9.49-2.65s-5.35-2.7-9.47-2.7z"/><path class="cls-4" d="M151 20.57c2 2.09 6.34 7.74 5.31 8.84l-.61.65c-1 1.09-6.35-3.57-8.29-5.64-2.95-3.13-5.87-8.25-5-9.14s5.59 2.16 8.59 5.29"/><path class="cls-5" d="M151 20.57c2 2.09 6.34 7.74 5.31 8.84l-.61.65c-1 1.09-6.35-3.57-8.29-5.64-2.95-3.13-5.87-8.25-5-9.14s5.59 2.16 8.59 5.29z"/><path class="cls-4" d="M170.61 41.64c-1.94-2.06-7.17-6.63-8.18-5.56l-.6.64c-1 1.08 3.3 6.65 5.21 8.69 2.9 3.08 7.64 6.14 8.47 5.26s-2-5.94-4.9-9"/><path class="cls-5" d="M170.61 41.64c-1.94-2.06-7.17-6.63-8.18-5.56l-.6.64c-1 1.08 3.3 6.65 5.21 8.69 2.9 3.08 7.64 6.14 8.47 5.26s-2-5.94-4.9-9.03z"/><path class="cls-4" d="M171.11 24.36c-1.94 2.06-7.17 6.63-8.18 5.56l-.61-.64c-1-1.08 3.3-6.65 5.22-8.69 2.9-3.08 7.64-6.14 8.46-5.26s-2 5.94-4.89 9"/><path class="cls-5" d="M171.11 24.36c-1.94 2.06-7.17 6.63-8.18 5.56l-.61-.64c-1-1.08 3.3-6.65 5.22-8.69 2.9-3.08 7.64-6.14 8.46-5.26s-2 5.94-4.89 9.03z"/><path class="cls-4" d="M147.19 41.13c1.94-2.06 7.18-6.64 8.19-5.56l.6.64c1 1.08-3.3 6.65-5.22 8.69-2.9 3.08-7.64 6.13-8.46 5.26s2-5.95 4.89-9"/><path class="cls-5" d="M147.19 41.13c1.94-2.06 7.18-6.64 8.19-5.56l.6.64c1 1.08-3.3 6.65-5.22 8.69-2.9 3.08-7.64 6.13-8.46 5.26s1.99-5.95 4.89-9.03z"/><path class="cls-4" d="M167.5 20.24c-1 2.76-4.14 9.28-5.5 8.71l-.8-.34c-1.36-.56.54-7.61 1.54-10.33 1.53-4.12 4.78-9 5.88-8.55s.41 6.39-1.12 10.51"/><path class="cls-5" d="M167.5 20.24c-1 2.76-4.14 9.28-5.5 8.71l-.8-.34c-1.36-.56.54-7.61 1.54-10.33 1.53-4.12 4.78-9 5.88-8.55s.38 6.39-1.12 10.51z"/><path class="cls-4" d="M151.67 45.39c1-2.72 4.09-9.13 5.42-8.58l.79.34c1.34.55-.53 7.49-1.52 10.17-1.5 4.06-4.7 8.87-5.79 8.42s-.4-6.3 1.1-10.35"/><path class="cls-5" d="M151.67 45.39c1-2.72 4.09-9.13 5.42-8.58l.79.34c1.34.55-.53 7.49-1.52 10.17-1.5 4.06-4.7 8.87-5.79 8.42s-.4-6.3 1.1-10.35z"/><path class="cls-4" d="M156 18.15c1.11 2.72 3.23 9.67 1.9 10.29l-.79.37c-1.34.62-4.69-5.79-5.79-8.48-1.66-4.06-2.61-10-1.52-10.46s4.54 4.22 6.2 8.28"/><path class="cls-5" d="M156 18.15c1.11 2.72 3.23 9.67 1.9 10.29l-.79.37c-1.34.62-4.69-5.79-5.79-8.48-1.66-4.06-2.61-10-1.52-10.46s4.54 4.22 6.2 8.28z"/><path class="cls-4" d="M145.63 35.88c2.52-1.17 9-3.39 9.53-2l.34.83c.58 1.4-5.36 4.9-7.84 6.05-3.76 1.74-9.23 2.74-9.69 1.6s3.9-4.75 7.66-6.49"/><path class="cls-5" d="M145.63 35.88c2.52-1.17 9-3.39 9.53-2l.34.83c.58 1.4-5.36 4.9-7.84 6.05-3.76 1.74-9.23 2.74-9.69 1.6s3.9-4.74 7.66-6.48z"/><path class="cls-4" d="M162.38 47.45c-1.1-2.68-3.19-9.53-1.88-10.13l.78-.37c1.32-.6 4.62 5.7 5.7 8.35 1.63 4 2.57 9.8 1.5 10.3s-4.47-4.15-6.1-8.15"/><path class="cls-5" d="M162.38 47.45c-1.1-2.68-3.19-9.53-1.88-10.13l.78-.37c1.32-.6 4.62 5.7 5.7 8.35 1.63 4 2.57 9.8 1.5 10.3s-4.48-4.15-6.1-8.15z"/><path class="cls-4" d="M170.81 40.83c-2.55-1.07-8.59-4.34-8.06-5.76l.31-.84c.53-1.42 7.05.56 9.57 1.62 3.82 1.59 8.35 5 7.92 6.15s-5.92.43-9.74-1.17"/><path class="cls-5" d="M170.81 40.83c-2.55-1.07-8.59-4.34-8.06-5.76l.31-.84c.53-1.42 7.05.56 9.57 1.62 3.82 1.59 8.35 5 7.92 6.15s-5.92.43-9.74-1.17z"/><path class="cls-4" d="M172.75 29.61c-2.51 1.16-9 3.38-9.53 2l-.34-.83c-.57-1.4 5.36-4.91 7.85-6.06 3.76-1.74 9.22-2.73 9.68-1.6s-3.9 4.76-7.66 6.5"/><path class="cls-5" d="M172.75 29.61c-2.51 1.16-9 3.38-9.53 2l-.34-.83c-.57-1.4 5.36-4.91 7.85-6.06 3.76-1.74 9.22-2.73 9.68-1.6s-3.9 4.75-7.66 6.49z"/><path class="cls-4" d="M146.84 24.68c2.59 1.09 8.72 4.41 8.19 5.85-.23.6-.08.2-.32.86-.53 1.44-7.16-.57-9.72-1.65-3.88-1.62-8.47-5.07-8-6.25s6-.43 9.89 1.19"/><path class="cls-5" d="M146.84 24.68c2.59 1.09 8.72 4.41 8.19 5.85-.23.6-.08.2-.32.86-.53 1.44-7.16-.57-9.72-1.65-3.88-1.62-8.47-5.07-8-6.25s6.01-.43 9.85 1.19z"/><path class="cls-6" d="M164.32 32.88a5.17 5.17 0 1 1-5.16-5.49 5.33 5.33 0 0 1 5.16 5.49"/><path class="cls-5" d="M164.32 32.88a5.17 5.17 0 1 1-5.16-5.49 5.33 5.33 0 0 1 5.16 5.49z"/><path class="cls-4" d="M197.83 13.75c0 3-.67 10.24-2.12 10.24h-.87c-1.46 0-2.12-7.29-2.12-10.22 0-4.43 1.34-10.24 2.53-10.24s2.58 5.79 2.58 10.22"/><path class="cls-5" d="M197.83 13.75c0 3-.67 10.24-2.12 10.24h-.87c-1.46 0-2.12-7.29-2.12-10.22 0-4.43 1.34-10.24 2.53-10.24s2.58 5.79 2.58 10.22z"/><path class="cls-4" d="M192.41 43.26c0-2.92.66-10.09 2.09-10.09h.85c1.44 0 2.09 7.19 2.09 10.07 0 4.36-1.32 10.08-2.49 10.08s-2.54-5.7-2.54-10.06"/><path class="cls-5" d="M192.41 43.26c0-2.92.66-10.09 2.09-10.09h.85c1.44 0 2.09 7.19 2.09 10.07 0 4.36-1.32 10.08-2.49 10.08s-2.54-5.7-2.54-10.06z"/><path class="cls-4" d="M181.06 25.84c2.75 0 9.49.7 9.49 2.23V29c0 1.53-6.76 2.22-9.47 2.22-4.1 0-9.48-1.4-9.48-2.64s5.36-2.71 9.46-2.71"/><path class="cls-5" d="M181.06 25.84c2.75 0 9.49.7 9.49 2.23V29c0 1.53-6.76 2.22-9.47 2.22-4.1 0-9.48-1.4-9.48-2.64s5.4-2.74 9.46-2.74z"/><path class="cls-4" d="M208.79 25.84c-2.74 0-9.49.7-9.49 2.23V29c0 1.53 6.76 2.22 9.47 2.22 4.1 0 9.48-1.4 9.48-2.64s-5.36-2.71-9.46-2.71"/><path class="cls-5" d="M208.79 25.84c-2.74 0-9.49.7-9.49 2.23V29c0 1.53 6.76 2.22 9.47 2.22 4.1 0 9.48-1.4 9.48-2.64s-5.36-2.74-9.46-2.74z"/><path class="cls-4" d="M186.75 16.35c2 2.1 6.34 7.75 5.31 8.84l-.61.65c-1 1.1-6.35-3.56-8.3-5.63-2.94-3.13-5.86-8.25-5-9.15s5.68 2.16 8.62 5.29"/><path class="cls-5" d="M186.75 16.35c2 2.1 6.34 7.75 5.31 8.84l-.61.65c-1 1.1-6.35-3.56-8.3-5.63-2.94-3.13-5.86-8.25-5-9.15s5.66 2.16 8.6 5.29z"/><path class="cls-4" d="M206.38 37.43c-1.94-2.07-7.17-6.64-8.19-5.56l-.6.64c-1 1.08 3.3 6.65 5.22 8.68 2.9 3.09 7.64 6.14 8.47 5.26s-2-5.94-4.9-9"/><path class="cls-5" d="M206.38 37.43c-1.94-2.07-7.17-6.64-8.19-5.56l-.6.64c-1 1.08 3.3 6.65 5.22 8.68 2.9 3.09 7.64 6.14 8.47 5.26s-2-5.94-4.9-9.02z"/><path class="cls-4" d="M206.87 20.14c-1.94 2.06-7.17 6.64-8.18 5.56l-.6-.64c-1-1.08 3.3-6.65 5.22-8.69 2.89-3.08 7.64-6.13 8.46-5.26s-2 5.95-4.9 9"/><path class="cls-5" d="M206.87 20.14c-1.94 2.06-7.17 6.64-8.18 5.56l-.6-.64c-1-1.08 3.3-6.65 5.22-8.69 2.89-3.08 7.64-6.13 8.46-5.26s-2 5.95-4.9 9.03z"/><path class="cls-4" d="M183 36.91c1.94-2.06 7.17-6.63 8.18-5.56l.61.64c1 1.08-3.3 6.65-5.22 8.69-2.9 3.08-7.64 6.14-8.47 5.26s2-5.94 4.9-9"/><path class="cls-5" d="M183 36.91c1.94-2.06 7.17-6.63 8.18-5.56l.61.64c1 1.08-3.3 6.65-5.22 8.69-2.9 3.08-7.64 6.14-8.47 5.26s1.96-5.94 4.9-9.03z"/><path class="cls-4" d="M203.27 16c-1 2.76-4.15 9.27-5.5 8.7l-.77-.3c-1.35-.57.54-7.62 1.55-10.34 1.52-4.12 4.77-9 5.88-8.55s.4 6.4-1.12 10.52"/><path class="cls-5" d="M203.27 16c-1 2.76-4.15 9.27-5.5 8.7l-.77-.3c-1.35-.57.54-7.62 1.55-10.34 1.52-4.12 4.77-9 5.88-8.55s.36 6.4-1.16 10.49z"/><path class="cls-4" d="M187.44 41.17c1-2.72 4.08-9.13 5.42-8.57l.79.33c1.34.56-.53 7.5-1.52 10.18-1.5 4-4.7 8.87-5.79 8.41s-.4-6.29 1.1-10.35"/><path class="cls-5" d="M187.44 41.17c1-2.72 4.08-9.13 5.42-8.57l.79.33c1.34.56-.53 7.5-1.52 10.18-1.5 4-4.7 8.87-5.79 8.41s-.4-6.29 1.1-10.35z"/><path class="cls-4" d="M191.77 13.93c1.11 2.72 3.23 9.68 1.9 10.29l-.8.37c-1.34.62-4.68-5.79-5.78-8.47-1.66-4.06-2.61-10-1.53-10.47s4.54 4.22 6.21 8.28"/><path class="cls-5" d="M191.77 13.93c1.11 2.72 3.23 9.68 1.9 10.29l-.8.37c-1.34.62-4.68-5.79-5.78-8.47-1.66-4.06-2.61-10-1.53-10.47s4.54 4.22 6.21 8.28z"/><path class="cls-4" d="M181.4 31.66c2.51-1.16 9-3.38 9.53-2l.34.83c.57 1.4-5.36 4.91-7.85 6.06-3.75 1.74-9.22 2.74-9.68 1.6s3.9-4.76 7.66-6.5"/><path class="cls-5" d="M181.4 31.66c2.51-1.16 9-3.38 9.53-2l.34.83c.57 1.4-5.36 4.91-7.85 6.06-3.75 1.74-9.22 2.74-9.68 1.6s3.9-4.75 7.66-6.49z"/><path class="cls-4" d="M198.14 43.23c-1.09-2.67-3.18-9.52-1.87-10.13l.78-.36c1.32-.61 4.61 5.7 5.69 8.34 1.64 4 2.58 9.81 1.51 10.3s-4.47-4.15-6.11-8.15"/><path class="cls-5" d="M198.14 43.23c-1.09-2.67-3.18-9.52-1.87-10.13l.78-.36c1.32-.61 4.61 5.7 5.69 8.34 1.64 4 2.58 9.81 1.51 10.3s-4.47-4.15-6.11-8.15z"/><path class="cls-4" d="M206.58 36.62c-2.56-1.07-8.59-4.35-8.07-5.76.22-.6.08-.2.32-.85.52-1.42 7 .57 9.57 1.62 3.81 1.6 8.34 5 7.91 6.16s-5.92.42-9.73-1.17"/><path class="cls-5" d="M206.58 36.62c-2.56-1.07-8.59-4.35-8.07-5.76.22-.6.08-.2.32-.85.52-1.42 7 .57 9.57 1.62 3.81 1.6 8.34 5 7.91 6.16s-5.92.42-9.73-1.17z"/><path class="cls-4" d="M208.52 25.39c-2.52 1.17-9 3.39-9.53 2l-.34-.83c-.58-1.4 5.36-4.9 7.84-6.05 3.76-1.74 9.23-2.74 9.69-1.6s-3.9 4.75-7.66 6.49"/><path class="cls-5" d="M208.52 25.39c-2.52 1.17-9 3.39-9.53 2l-.34-.83c-.58-1.4 5.36-4.9 7.84-6.05 3.76-1.74 9.23-2.74 9.69-1.6s-3.9 4.74-7.66 6.48z"/><path class="cls-4" d="M182.61 20.47c2.59 1.08 8.72 4.41 8.18 5.84l-.31.86c-.54 1.44-7.16-.57-9.72-1.64-3.88-1.62-8.48-5.08-8-6.25s6-.44 9.89 1.19"/><path class="cls-5" d="M182.61 20.47c2.59 1.08 8.72 4.41 8.18 5.84l-.31.86c-.54 1.44-7.16-.57-9.72-1.64-3.88-1.62-8.48-5.08-8-6.25s5.97-.44 9.85 1.19z"/><path class="cls-6" d="M200.09 28.66a5.17 5.17 0 1 1-10.33 0 5.17 5.17 0 1 1 10.33 0"/><path class="cls-5" d="M200.09 28.66a5.17 5.17 0 1 1-10.33 0 5.17 5.17 0 1 1 10.33 0z"/><text class="cls-7" transform="matrix(1 0 0 1.06 198.38 66.13)">Blossom</text><path class="cls-8" d="M209.83 57.22a3.68 3.68 0 0 1 .92 2.59 7 7 0 0 1-.24 2.2 3.76 3.76 0 0 1-.83 1.53 3.35 3.35 0 0 1-1.38.88 5.86 5.86 0 0 1-1.91.28h-.5l-.6-.07-.62-.1a4.07 4.07 0 0 1-.55-.12l1-7.94H207a4 4 0 0 1 2.83.75zm.63-9.46a3.4 3.4 0 0 1 .8 2.3 5.18 5.18 0 0 1-.3 2.06 3.62 3.62 0 0 1-.91 1.39 3.5 3.5 0 0 1-1.35.78 5.09 5.09 0 0 1-1.62.25h-1.72l.93-7.39.49-.08h1.41a3 3 0 0 1 2.27.69zM202 66.12h.9l1 .09 1 .09h1a18 18 0 0 0 3.87-.38 7.92 7.92 0 0 0 2.87-1.23 5.42 5.42 0 0 0 1.79-2.17 7.46 7.46 0 0 0 .62-3.22 4.06 4.06 0 0 0-.31-1.59 4.17 4.17 0 0 0-.89-1.31 4.45 4.45 0 0 0-1.41-.91 5.18 5.18 0 0 0-1.86-.35 6.88 6.88 0 0 0 3.46-2 4.92 4.92 0 0 0 1.11-3.54 5.39 5.39 0 0 0-.29-1.64 3.4 3.4 0 0 0-.94-1.41 4.85 4.85 0 0 0-1.82-1 9.7 9.7 0 0 0-2.94-.37c-.79 0-1.54 0-2.24.1s-1.42.11-2.14.12h-4l-.22 1.6 1.81.34-2.12 17-1.81.4-.11 1.38zm15.44-.71a1.7 1.7 0 0 0 .56.59 2.28 2.28 0 0 0 .78.31 4.08 4.08 0 0 0 .93.11 3.5 3.5 0 0 0 1.33-.25 5 5 0 0 0 1-.58 4.25 4.25 0 0 0 .72-.65 6 6 0 0 0 .38-.47l-.37-.94a3.86 3.86 0 0 1-.76.56 1 1 0 0 1-.46.13.36.36 0 0 1-.37-.28 1.6 1.6 0 0 1 0-.75l2.4-19-.64-.37-4.76.57-.26 1.13 1.66.58-2.22 17.47c0 .13 0 .3-.06.51a3.62 3.62 0 0 0 0 .54 1.69 1.69 0 0 0 .14.79zm11.95-1.72a9.54 9.54 0 0 1-.54-3.43 16 16 0 0 1 .05-1.82 15.67 15.67 0 0 1 .23-1.84 11.78 11.78 0 0 1 .44-1.68 6.24 6.24 0 0 1 .64-1.4 3.56 3.56 0 0 1 .88-1 1.9 1.9 0 0 1 1.11-.35 1.4 1.4 0 0 1 .8.23 1.78 1.78 0 0 1 .59.75 5.19 5.19 0 0 1 .38 1.33 13.34 13.34 0 0 1 .17 2v1.86a14.26 14.26 0 0 1-.21 1.87 13 13 0 0 1-.4 1.74 6.49 6.49 0 0 1-.63 1.43 3.29 3.29 0 0 1-.85 1 1.79 1.79 0 0 1-1.1.36 1.59 1.59 0 0 1-1.56-1.05zm-3.19 1.17a5.16 5.16 0 0 0 4.13 1.63 7.07 7.07 0 0 0 3.36-.8 7.68 7.68 0 0 0 2.55-2.16 9.69 9.69 0 0 0 1.59-3.16 11.94 11.94 0 0 0 .5-3.81 7 7 0 0 0-1.51-4.63 5.3 5.3 0 0 0-4.16-1.59 7.07 7.07 0 0 0-3.36.8 7.79 7.79 0 0 0-2.54 2.14 9.56 9.56 0 0 0-1.58 3.14 12.16 12.16 0 0 0-.48 3.8 7.21 7.21 0 0 0 1.5 4.64zm13.6.94a7.5 7.5 0 0 0 1 .3 10.13 10.13 0 0 0 1.19.21 9 9 0 0 0 1.25.09 8.15 8.15 0 0 0 2.22-.3 5.6 5.6 0 0 0 1.87-.9 4.32 4.32 0 0 0 1.3-1.51 4.52 4.52 0 0 0 .48-2.13 5.08 5.08 0 0 0-.21-1.52 4.52 4.52 0 0 0-.57-1.19 5.91 5.91 0 0 0-.84-1c-.32-.29-.66-.58-1-.86s-.69-.56-1-.8a6 6 0 0 1-.71-.74 3.2 3.2 0 0 1-.43-.75 2.15 2.15 0 0 1-.12-.81 1.46 1.46 0 0 1 .66-1.25 1.84 1.84 0 0 1 .67-.29 2.88 2.88 0 0 1 .78-.1 3 3 0 0 1 1 .15 4.05 4.05 0 0 1 .78.35 3.51 3.51 0 0 1 .57.42c.15.15.27.26.34.35l.54-2.68a3.3 3.3 0 0 0-.51-.17 11.473 11.473 0 0 0-1.79-.28c-.38-.03-.7-.05-1-.05a7.76 7.76 0 0 0-2.33.33 5.65 5.65 0 0 0-1.81.94 4.37 4.37 0 0 0-1.18 1.46 4.13 4.13 0 0 0-.42 1.86 4.92 4.92 0 0 0 .24 1.59 5.53 5.53 0 0 0 .6 1.27 5.59 5.59 0 0 0 .8 1 7.93 7.93 0 0 0 .86.74c.35.25.66.5 1 .74a6.24 6.24 0 0 1 .73.72 3 3 0 0 1 .48.76 2.05 2.05 0 0 1 .17.83 1.62 1.62 0 0 1-.2.85 1.53 1.53 0 0 1-.5.54 2.13 2.13 0 0 1-.69.3 3.81 3.81 0 0 1-.74.08 3.93 3.93 0 0 1-1.09-.15 4.88 4.88 0 0 1-1-.37 5.32 5.32 0 0 1-.79-.47 5.12 5.12 0 0 1-.56-.46l-.57 2.58a2.31 2.31 0 0 0 .53.32zm11.14 0a7.68 7.68 0 0 0 1 .3 9.77 9.77 0 0 0 1.19.21 8.86 8.86 0 0 0 1.25.09 8.15 8.15 0 0 0 2.22-.3 5.7 5.7 0 0 0 1.87-.9 4.43 4.43 0 0 0 1.3-1.51 4.52 4.52 0 0 0 .48-2.13A5.08 5.08 0 0 0 260 60a4.52 4.52 0 0 0-.57-1.19 7 7 0 0 0-.84-1c-.32-.29-.66-.58-1-.86l-1-.8a5.37 5.37 0 0 1-.71-.74 2.88 2.88 0 0 1-.43-.75 2.15 2.15 0 0 1-.13-.81 1.73 1.73 0 0 1 .19-.75 1.53 1.53 0 0 1 .48-.5 1.8 1.8 0 0 1 .66-.29 3.19 3.19 0 0 1 1.76 0 3.67 3.67 0 0 1 1.35.77l.34.35.54-2.68a3.3 3.3 0 0 0-.51-.17c-.23-.06-.5-.11-.79-.16s-.62-.09-1-.12-.7-.05-1.05-.05a7.7 7.7 0 0 0-2.32.33 5.54 5.54 0 0 0-1.81.94 4.26 4.26 0 0 0-1.18 1.46 4.13 4.13 0 0 0-.42 1.86 4.92 4.92 0 0 0 .24 1.59 4.81 4.81 0 0 0 .6 1.27 5.18 5.18 0 0 0 .8 1 7.93 7.93 0 0 0 .86.74c.35.25.66.5 1 .74a6.24 6.24 0 0 1 .73.72 3.7 3.7 0 0 1 .48.76 2.05 2.05 0 0 1 .17.83 1.72 1.72 0 0 1-.2.85 1.47 1.47 0 0 1-.51.54 2.13 2.13 0 0 1-.69.3 3.71 3.71 0 0 1-.73.08 3.88 3.88 0 0 1-1.09-.15 4.65 4.65 0 0 1-1-.37 5.32 5.32 0 0 1-.79-.47 5.12 5.12 0 0 1-.56-.46l-.58 2.58a2.31 2.31 0 0 0 .65.41zm15.84-2.11a10 10 0 0 1-.54-3.43c0-.59 0-1.2.05-1.82a15.67 15.67 0 0 1 .23-1.84 11.78 11.78 0 0 1 .44-1.68 6.25 6.25 0 0 1 .65-1.4 3.27 3.27 0 0 1 .88-1 1.89 1.89 0 0 1 1.1-.35 1.45 1.45 0 0 1 .81.23 1.77 1.77 0 0 1 .58.75 5.19 5.19 0 0 1 .38 1.33 13.34 13.34 0 0 1 .17 2v1.86a18.75 18.75 0 0 1-.21 1.87 14.77 14.77 0 0 1-.41 1.74 6.49 6.49 0 0 1-.63 1.43 3.29 3.29 0 0 1-.85 1 1.79 1.79 0 0 1-1.1.36 1.59 1.59 0 0 1-1.55-1.05zm-3.19 1.17a5.17 5.17 0 0 0 4.13 1.63 7.07 7.07 0 0 0 3.36-.8 7.59 7.59 0 0 0 2.55-2.16 9.69 9.69 0 0 0 1.59-3.16 11.67 11.67 0 0 0 .5-3.81 7 7 0 0 0-1.51-4.63 5.3 5.3 0 0 0-4.16-1.59 7 7 0 0 0-3.35.8 7.72 7.72 0 0 0-2.55 2.14 9.56 9.56 0 0 0-1.58 3.14 12.46 12.46 0 0 0-.48 3.8 7.21 7.21 0 0 0 1.5 4.64zM290 66.12l.76-6.84c.08-.54.15-1.11.21-1.72s.1-1.2.12-1.77a7.5 7.5 0 0 1 .76-1.16 5.51 5.51 0 0 1 .83-.89 3.77 3.77 0 0 1 .86-.59 1.88 1.88 0 0 1 .81-.21 1.3 1.3 0 0 1 .46.08.7.7 0 0 1 .33.29 1.73 1.73 0 0 1 .21.6 5.14 5.14 0 0 1 .07 1 11.29 11.29 0 0 1 0 1.28q-.06.69-.15 1.38c-.06.46-.12.91-.19 1.34l-.2 1.22c-.06.37-.12.78-.19 1.17s-.13.77-.19 1.13-.1.7-.14 1a6.2 6.2 0 0 0-.05.8 3.5 3.5 0 0 0 .08.8 1.57 1.57 0 0 0 .34.71 1.78 1.78 0 0 0 .72.5 3.16 3.16 0 0 0 1.21.19 3.81 3.81 0 0 0 1.44-.25 5 5 0 0 0 1.08-.58 4.62 4.62 0 0 0 .75-.66q.28-.33.39-.48l-.37-.93a5.09 5.09 0 0 1-.73.56 1 1 0 0 1-.47.13.38.38 0 0 1-.31-.16 1.11 1.11 0 0 1-.13-.65c0-.27 0-.58.06-.91s.08-.68.13-1 .1-.72.17-1.09.12-.72.17-1.07.13-.8.2-1.26.14-.93.2-1.38.12-.87.16-1.26.06-.69.06-.92a6.51 6.51 0 0 0-.24-1.9 3.41 3.41 0 0 0-.68-1.27 2.53 2.53 0 0 0-1-.7 3.68 3.68 0 0 0-1.31-.22 4.84 4.84 0 0 0-1.52.24 5.38 5.38 0 0 0-1.36.67 6.49 6.49 0 0 0-1.2 1 8.23 8.23 0 0 0-1 1.37 5.35 5.35 0 0 0-.36-1.56 2.91 2.91 0 0 0-.71-1 2.54 2.54 0 0 0-1-.56 4.42 4.42 0 0 0-1.24-.17 4.06 4.06 0 0 0-1.39.24 5.72 5.72 0 0 0-1.27.67 7.12 7.12 0 0 0-1.13 1 8.39 8.39 0 0 0-1 1.25l.22-2.84-.66-.33-4.39.7-.22 1.17 1.35.81-1.67 13h3.76L282.73 56a8.82 8.82 0 0 1 .76-1.18 6.75 6.75 0 0 1 .85-1 4.1 4.1 0 0 1 .87-.65 1.65 1.65 0 0 1 .79-.24 1.77 1.77 0 0 1 .54.07.69.69 0 0 1 .38.28 1.53 1.53 0 0 1 .23.6 6.58 6.58 0 0 1 .09 1v1.27c0 .45-.06.91-.1 1.37s-.09.9-.14 1.34-.1.84-.15 1.22l-.72 6z"/><text transform="matrix(1 0 0 1.06 146.52 95.65)" font-size="26.09" font-family="MerriweatherUltraBold-Italic,MerriweatherUltraBold" font-style="italic" fill="#0d8b44">Florist</text><path class="cls-8" d="M155.85 95.65l.11-1.37-3.51-.4.95-7.76 5.98.46.35-2.86-6.09.31.93-7.38 4.87.31.37 3.05h2.53l.47-4.98h-13.97l-.17 1.47 1.81.34-2.08 17.04-1.78.4-.14 1.37h9.37zm7.56-.71a1.61 1.61 0 0 0 .54.56 2.32 2.32 0 0 0 .77.32 4.08 4.08 0 0 0 .93.1 3.32 3.32 0 0 0 1.33-.25 5.11 5.11 0 0 0 1-.57 5.25 5.25 0 0 0 .72-.65c.18-.22.31-.38.38-.48l-.37-.93a4.71 4.71 0 0 1-.77.56 1 1 0 0 1-.46.13.36.36 0 0 1-.37-.28 1.62 1.62 0 0 1 0-.75l2.39-19-.63-.37-4.77.57-.24 1.1 1.65.59-2.21 17.46c0 .13 0 .29-.07.5s0 .39 0 .54a1.7 1.7 0 0 0 .18.85zm11.96-1.72a9.72 9.72 0 0 1-.55-3.43c0-.59 0-1.2.05-1.83a15.5 15.5 0 0 1 .24-1.83 11.92 11.92 0 0 1 .43-1.69 6.17 6.17 0 0 1 .65-1.39 3.28 3.28 0 0 1 .88-1 1.9 1.9 0 0 1 1.11-.35 1.44 1.44 0 0 1 .8.23 1.71 1.71 0 0 1 .58.75 5 5 0 0 1 .39 1.33 15 15 0 0 1 .16 2v1.85c0 .64-.11 1.27-.21 1.88a12.52 12.52 0 0 1-.41 1.73 6.85 6.85 0 0 1-.62 1.44 3.28 3.28 0 0 1-.86 1 1.78 1.78 0 0 1-1.09.36 1.57 1.57 0 0 1-1.55-1.05zm-3.19 1.17A5.14 5.14 0 0 0 176.3 96a7.13 7.13 0 0 0 3.37-.8 7.77 7.77 0 0 0 2.54-2.16 9.85 9.85 0 0 0 1.6-3.17 11.91 11.91 0 0 0 .49-3.8 7 7 0 0 0-1.51-4.63 5.3 5.3 0 0 0-4.16-1.59 7 7 0 0 0-3.35.79 7.71 7.71 0 0 0-2.54 2.14 9.33 9.33 0 0 0-1.58 3.22 12.12 12.12 0 0 0-.49 3.8 7.15 7.15 0 0 0 1.51 4.59zM190 95.65l1.32-10.36a1.92 1.92 0 0 1 .52-.54 2.83 2.83 0 0 1 .69-.36 3.77 3.77 0 0 1 .77-.19 5.62 5.62 0 0 1 .81-.06 2.52 2.52 0 0 1 1 .15 1.59 1.59 0 0 1 .46.25l.8-4.39A1.26 1.26 0 0 0 196 80a1.44 1.44 0 0 0-.53-.09 3.23 3.23 0 0 0-1.49.34 4.67 4.67 0 0 0-1.24.88 5.54 5.54 0 0 0-.94 1.25 6.94 6.94 0 0 0-.6 1.42l.19-3.46-.66-.43-4 .7-.2 1.21 1.33.8-1.63 13zm12.51-18.48a2 2 0 0 0 .76-.56 2.47 2.47 0 0 0 .47-.82 3.68 3.68 0 0 0 .17-1 2.22 2.22 0 0 0-.14-.76 2.08 2.08 0 0 0-.4-.65 2 2 0 0 0-.64-.45 2 2 0 0 0-.86-.17 2.24 2.24 0 0 0-1 .19 2.4 2.4 0 0 0-.75.54 2.31 2.31 0 0 0-.48.8 2.89 2.89 0 0 0-.19 1 1.91 1.91 0 0 0 .14.79 2.11 2.11 0 0 0 .42.67 2.5 2.5 0 0 0 .63.48 1.63 1.63 0 0 0 .75.18 2.55 2.55 0 0 0 1.12-.24zm-4.61 18.22a2.67 2.67 0 0 0 1.83.53 3.64 3.64 0 0 0 1.4-.25 5.3 5.3 0 0 0 1.09-.57 5 5 0 0 0 .74-.65c.19-.22.33-.38.4-.48L203 93a5.89 5.89 0 0 1-.73.54 1 1 0 0 1-.48.15c-.37 0-.51-.34-.42-1L203 80.22l-.69-.32-4.81.7-.22 1.18 1.57.83c-.33 2.62-.63 4.89-.88 6.82s-.45 3.44-.59 4.53a1.55 1.55 0 0 0 .52 1.43zm7.1-.06a9.72 9.72 0 0 0 1 .3 9.44 9.44 0 0 0 1.19.21 8.84 8.84 0 0 0 1.25.08 8.55 8.55 0 0 0 2.22-.29 5.7 5.7 0 0 0 1.87-.9 4.38 4.38 0 0 0 1.78-3.64 5 5 0 0 0-.21-1.52 4.52 4.52 0 0 0-.57-1.19 6 6 0 0 0-.85-1c-.31-.29-.65-.58-1-.86s-.69-.56-1-.81A5.29 5.29 0 0 1 210 85a2.45 2.45 0 0 1-.43-.74 2.15 2.15 0 0 1-.13-.81 1.6 1.6 0 0 1 .19-.75 1.54 1.54 0 0 1 .47-.51 2.13 2.13 0 0 1 .67-.29 3.35 3.35 0 0 1 .79-.09 3 3 0 0 1 1 .15 4 4 0 0 1 .78.35 2.82 2.82 0 0 1 .56.42 3.78 3.78 0 0 1 .35.35l.53-2.68a2.48 2.48 0 0 0-.51-.17 11.473 11.473 0 0 0-1.79-.28 9.23 9.23 0 0 0-1.05 0 7.7 7.7 0 0 0-2.32.33 5.36 5.36 0 0 0-1.81.94 4.26 4.26 0 0 0-1.18 1.46 4.1 4.1 0 0 0-.42 1.86 5.21 5.21 0 0 0 .23 1.59 5.53 5.53 0 0 0 .6 1.27 5.64 5.64 0 0 0 .81 1 9.22 9.22 0 0 0 .86.74c.34.25.66.5.95.74a7.13 7.13 0 0 1 .73.72 3.93 3.93 0 0 1 .48.75 2.14 2.14 0 0 1 .17.84 1.68 1.68 0 0 1-.2.84 1.5 1.5 0 0 1-.51.55 2.11 2.11 0 0 1-.69.29 3.1 3.1 0 0 1-.73.09 4 4 0 0 1-1.1-.15 5.47 5.47 0 0 1-1-.37 6.34 6.34 0 0 1-.79-.47 5.12 5.12 0 0 1-.56-.46l-.52 2.49a2.27 2.27 0 0 0 .57.33zm12.1-.67a1.91 1.91 0 0 0 .54.75 2 2 0 0 0 .77.4 3.82 3.82 0 0 0 .9.11 6.23 6.23 0 0 0 1.69-.22 7.37 7.37 0 0 0 1.42-.55 5.85 5.85 0 0 0 1.07-.71 6.08 6.08 0 0 0 .72-.71l-.3-1.08a3.71 3.71 0 0 1-2.22.85.9.9 0 0 1-.74-.27 1.37 1.37 0 0 1-.22-.86 6.88 6.88 0 0 1 .06-.84c0-.31.08-.7.14-1.16l1-8.25h2.78l.28-2.11h-2.79l.42-3.54h-2.15c-.13.33-.27.68-.42 1s-.32.69-.49 1-.34.62-.52.89a3.81 3.81 0 0 1-.53.66l-1.57.64-.29 1.41h1.51l-1.05 8.45c-.08.61-.14 1.09-.18 1.45s-.06.64-.09.85 0 .35 0 .43v.2a2.86 2.86 0 0 0 .26 1.21z"/><path class="cls-3" d="M299.91 71.23H72.58a.85.85 0 0 1-.84-.84v-1a.85.85 0 0 1 .84-.84h227.33a.84.84 0 0 1 .84.84v1a.84.84 0 0 1-.84.84"/><rect x="71.74" y="68.57" width="229.01" height="2.66" rx=".84" stroke-linecap="round" stroke-width="1.34" stroke="#fff" fill="none" stroke-miterlimit="10"/><text class="cls-7" transform="matrix(1 0 0 1.06 70.77 65.88)">Cherry</text><path class="cls-8" d="M72 60.61a8 8 0 0 0 1.31 2.81 6.7 6.7 0 0 0 2.35 2 7.61 7.61 0 0 0 3.5.73 12.74 12.74 0 0 0 2.36-.19 10 10 0 0 0 1.79-.47 7.07 7.07 0 0 0 1.29-.6c.36-.22.65-.41.89-.59l.54-4h-2.3c-.06.2-.12.43-.19.7s-.16.53-.25.79-.18.49-.28.71a1.74 1.74 0 0 1-.28.5 2.37 2.37 0 0 1-.72.59 3.5 3.5 0 0 1-.79.33 4.55 4.55 0 0 1-.76.14h-.63a2.76 2.76 0 0 1-1.65-.5A3.52 3.52 0 0 1 77 62.15a8.23 8.23 0 0 1-.68-2.21 20.63 20.63 0 0 1-.23-2.94 18 18 0 0 1 .11-2.29 16.59 16.59 0 0 1 .41-2.34 12.92 12.92 0 0 1 .75-2.17 7.32 7.32 0 0 1 1.12-1.8A5 5 0 0 1 80 47.18a4 4 0 0 1 1.91-.45 3.64 3.64 0 0 1 .83.09 4.94 4.94 0 0 1 .71.25l.46 4h2.84l.79-5.32-.43-.13c-.23 0-.47-.12-.72-.2s-.55-.14-.89-.21-.75-.11-1.23-.16-1-.07-1.72-.07a11.39 11.39 0 0 0-4.43.84 9.62 9.62 0 0 0-3.46 2.42 11.05 11.05 0 0 0-2.23 3.85 15.6 15.6 0 0 0-.79 5.15 13.44 13.44 0 0 0 .36 3.37zm24.57 4.21a1.5 1.5 0 0 0 .35.7 1.65 1.65 0 0 0 .72.47 3.45 3.45 0 0 0 1.22.18 3.76 3.76 0 0 0 1.43-.25 5.4 5.4 0 0 0 1.1-.58 4.15 4.15 0 0 0 .75-.64 5.41 5.41 0 0 0 .39-.47l-.37-.92a4.8 4.8 0 0 1-.73.52 1 1 0 0 1-.43.17.38.38 0 0 1-.31-.16 1.11 1.11 0 0 1-.13-.65c0-.27 0-.58.07-.91s.08-.68.13-1 .11-.72.17-1.09.12-.72.18-1.07.13-.8.2-1.26.14-.91.21-1.36.12-.88.16-1.26.06-.7.06-.94a6.61 6.61 0 0 0-.24-1.92 3.29 3.29 0 0 0-.68-1.26 2.34 2.34 0 0 0-1-.7 4 4 0 0 0-1.32-.21 4.28 4.28 0 0 0-1.47.25 5.67 5.67 0 0 0-1.34.69 6.45 6.45 0 0 0-1.17 1.06 9 9 0 0 0-1 1.35l1.13-9.58-.7-.37-4.8.57-.2 1.13 1.59.58-2.38 19.99H92l1.14-9.79a11.26 11.26 0 0 1 .77-1.31 7.08 7.08 0 0 1 .88-1.09 4.6 4.6 0 0 1 .92-.73 1.75 1.75 0 0 1 .87-.27 1.32 1.32 0 0 1 .47.08.84.84 0 0 1 .34.29 1.75 1.75 0 0 1 .21.59 6.08 6.08 0 0 1 .09 1c0 .39 0 .82-.06 1.28s-.08.93-.14 1.39-.13.92-.2 1.36-.14.85-.21 1.22-.08.75-.18 1.1-.13.77-.19 1.13-.11.7-.15 1a6.42 6.42 0 0 0-.06.79 4.57 4.57 0 0 0 .07.9zm12.04-8.02c.07-.46.15-.93.26-1.39a10.69 10.69 0 0 1 .41-1.32 5.25 5.25 0 0 1 .57-1.11 2.83 2.83 0 0 1 .74-.76 1.66 1.66 0 0 1 1-.29q1.11 0 1.17 1.92a3.41 3.41 0 0 1-.41 1.79 4.62 4.62 0 0 1-1.13 1.36 5 5 0 0 1-1.38.83 4.87 4.87 0 0 1-1.36.33c.03-.46.07-.89.13-1.36zm-4 5.53a5.58 5.58 0 0 0 .94 2 4.87 4.87 0 0 0 1.69 1.41 5.64 5.64 0 0 0 2.54.53 6.4 6.4 0 0 0 2.11-.33 7.22 7.22 0 0 0 1.7-.8 6.46 6.46 0 0 0 1.24-1 6.73 6.73 0 0 0 .77-1l-.76-1.34c-.22.26-.45.52-.71.78a6 6 0 0 1-.87.69 4.64 4.64 0 0 1-1.05.51 4 4 0 0 1-1.28.2 2 2 0 0 1-1.1-.3 2.3 2.3 0 0 1-.78-.85 4.65 4.65 0 0 1-.45-1.35 8.56 8.56 0 0 1-.13-1.74 11.45 11.45 0 0 0 1.65-.19 10.75 10.75 0 0 0 1.79-.47 9.39 9.39 0 0 0 1.73-.81 6.82 6.82 0 0 0 1.48-1.17 5.49 5.49 0 0 0 1-1.57 4.69 4.69 0 0 0 .35-2 4.15 4.15 0 0 0-.27-1.34 2.9 2.9 0 0 0-.74-1.09 3.32 3.32 0 0 0-1.25-.72 5.33 5.33 0 0 0-1.8-.27 6.84 6.84 0 0 0-3.2.77 8.09 8.09 0 0 0-2.57 2.1 9.94 9.94 0 0 0-1.71 3.15 12 12 0 0 0-.63 3.94 8.74 8.74 0 0 0 .31 2.26zm17.51 3.55l1.32-10.36A1.92 1.92 0 0 1 124 55a2.8 2.8 0 0 1 .69-.35 3.78 3.78 0 0 1 .77-.2 5.52 5.52 0 0 1 .81-.06 2.52 2.52 0 0 1 1 .15 1.35 1.35 0 0 1 .46.26l.8-4.39a1.24 1.24 0 0 0-.33-.17 1.44 1.44 0 0 0-.53-.09 3.23 3.23 0 0 0-1.49.34 4.34 4.34 0 0 0-1.24.89 5.48 5.48 0 0 0-.94 1.24 6.94 6.94 0 0 0-.6 1.42l.19-3.46-.66-.43-4 .7-.2 1.21 1.33.8-1.64 13zm10.81 0l1.31-10.36a1.82 1.82 0 0 1 .53-.54 2.73 2.73 0 0 1 .68-.35 3.88 3.88 0 0 1 .78-.2 5.49 5.49 0 0 1 .8-.06 2.45 2.45 0 0 1 .95.15 1.35 1.35 0 0 1 .46.26l.81-4.39a1.17 1.17 0 0 0-.34-.17 1.44 1.44 0 0 0-.53-.09 3.26 3.26 0 0 0-1.49.34 4.49 4.49 0 0 0-1.24.89 5.75 5.75 0 0 0-.93 1.24 7.6 7.6 0 0 0-.61 1.42l.19-3.46-.66-.43-4 .7-.17 1.17 1.33.8-1.63 13z"/><path class="cls-8" d="M145.39 66.79a13.62 13.62 0 0 1-1.09 1.7 6.42 6.42 0 0 1-1.07 1.12 3.66 3.66 0 0 1-1.08.63 3.25 3.25 0 0 1-1.11.2 4.26 4.26 0 0 1-.7-.07 6 6 0 0 1-.67-.17 5 5 0 0 1-.56-.23 2.19 2.19 0 0 1-.39-.27l-.9 2.61a1.78 1.78 0 0 0 .41.19c.19.06.41.12.65.17s.5.1.75.14a6.57 6.57 0 0 0 .74 0 5.94 5.94 0 0 0 1.45-.18 4.89 4.89 0 0 0 1.39-.58 6 6 0 0 0 1.32-1.1 9.34 9.34 0 0 0 1.21-1.68c.27-.43.61-1 1-1.67s.82-1.42 1.26-2.21.88-1.6 1.31-2.43.8-1.61 1.12-2.34.6-1.3.86-1.92.51-1.24.71-1.86a13.48 13.48 0 0 0 .48-1.92 11.7 11.7 0 0 0 .18-2.09 3.86 3.86 0 0 0-.13-1 2.74 2.74 0 0 0-.41-.88 2 2 0 0 0-.68-.62 2 2 0 0 0-1-.23 1.81 1.81 0 0 0-1.37.49 1.84 1.84 0 0 0-.46 1.28 3.45 3.45 0 0 0 .1.92c.07.25.14.49.22.72s.15.49.22.76a4.57 4.57 0 0 1 .1 1 9.93 9.93 0 0 1-.18 1.86 17.53 17.53 0 0 1-.45 1.91c-.19.64-.42 1.3-.67 2s-.53 1.33-.82 2l-1.06 2.31-.33-2.87c-.1-.69-.22-1.5-.35-2.42s-.26-1.85-.39-2.82-.26-1.9-.4-2.82-.25-1.73-.35-2.42a2.24 2.24 0 0 0-.64-1.37 2.28 2.28 0 0 0-1.62-.49 3.41 3.41 0 0 0-1.16.2 5.37 5.37 0 0 0-1 .48 5.69 5.69 0 0 0-.71.53 2.76 2.76 0 0 0-.37.4l.37 1a1.12 1.12 0 0 1 .4-.23 1.25 1.25 0 0 1 .32 0 .38.38 0 0 1 .33.16 1.67 1.67 0 0 1 .21.6l2.65 13.57z"/></svg>