<svg id="Layer_1" data-name="Layer 1" xmlns="http://www.w3.org/2000/svg" xmlns:xlink="http://www.w3.org/1999/xlink" viewBox="0 0 300 100"><defs><style>.cls-1,.cls-5,.cls-6,.cls-7,.cls-8,.cls-9{fill:none;}.cls-2{clip-path:url(#clip-path);}.cls-3{fill:#405a7d;}.cls-4{fill:#778393;}.cls-5,.cls-6,.cls-7{stroke:#405a7d;}.cls-5,.cls-6,.cls-7,.cls-8,.cls-9{stroke-miterlimit:10;}.cls-5{stroke-width:2.17px;}.cls-6{stroke-width:1.9px;}.cls-7,.cls-9{stroke-width:0.95px;}.cls-8,.cls-9{stroke:#3f5a7e;}.cls-8{stroke-width:0.71px;}</style><clipPath id="clip-path"><rect class="cls-1" x="4.25" y="14.09" width="291.5" height="71.81"/></clipPath></defs><title>rlc-drywall-services</title><g class="cls-2"><g class="cls-2"><path class="cls-3" d="M73,66.47V50.79h6a8.66,8.66,0,0,1,3.42.62,6.88,6.88,0,0,1,4,4.16,8.94,8.94,0,0,1,.51,3,8.72,8.72,0,0,1-.57,3.23,7,7,0,0,1-1.6,2.48,7.28,7.28,0,0,1-2.49,1.59,9.12,9.12,0,0,1-3.25.56Zm9.56-7.86A5.41,5.41,0,0,0,82.35,57a3.52,3.52,0,0,0-.7-1.28,3.18,3.18,0,0,0-1.11-.83,3.56,3.56,0,0,0-1.48-.3H77.34v8.18h1.72a3.59,3.59,0,0,0,1.5-.31,3.29,3.29,0,0,0,1.12-.87,3.66,3.66,0,0,0,.68-1.3,5.31,5.31,0,0,0,.23-1.63"/><path class="cls-3" d="M88.84,66.47V50.79H96a4.81,4.81,0,0,1,2.12.47,5.47,5.47,0,0,1,1.67,1.24,5.84,5.84,0,0,1,1.1,1.74,5.37,5.37,0,0,1,.39,2,5.69,5.69,0,0,1-.59,2.55,5.2,5.2,0,0,1-1.66,1.94l3.31,5.76H97.52l-2.76-4.82H93.15v4.82Zm4.31-8.57h2.72a1,1,0,0,0,.74-.44A2,2,0,0,0,97,56.22a1.77,1.77,0,0,0-.4-1.25,1.13,1.13,0,0,0-.79-.43H93.15Z"/><polygon class="cls-3" points="106 50.79 108.81 57.57 111.68 50.79 116.36 50.79 110.95 61.28 110.95 66.47 106.67 66.47 106.67 61.23 101.34 50.79 106 50.79"/><polygon class="cls-3" points="122.53 50.79 126.48 50.79 127.85 55.63 129.24 50.79 133.19 50.79 130.61 58.28 131.74 61.55 135.12 50.79 139.8 50.79 133.66 66.47 130.08 66.47 127.85 60.86 125.64 66.47 122.06 66.47 115.92 50.79 120.58 50.79 123.98 61.55 125.07 58.28 122.53 50.79"/><path class="cls-3" d="M143.64,50.79h3.93L153,66.47h-4.38l-.95-3.07h-4.17l-.93,3.07h-4.4ZM147,60.53l-1.39-4.86-1.46,4.86Z"/><polygon class="cls-3" points="154.31 66.47 154.31 50.79 158.62 50.79 158.62 62.72 165.73 62.72 165.73 66.47 154.31 66.47"/><polygon class="cls-3" points="167.23 66.47 167.23 50.79 171.54 50.79 171.54 62.72 178.65 62.72 178.65 66.47 167.23 66.47"/><path class="cls-3" d="M194,55.91a11.77,11.77,0,0,0-1.37-.7,11.44,11.44,0,0,0-1.34-.5,4.62,4.62,0,0,0-1.45-.23,2.11,2.11,0,0,0-.91.17.62.62,0,0,0-.34.6.69.69,0,0,0,.19.51,2.07,2.07,0,0,0,.58.36,6.43,6.43,0,0,0,.92.32l1.22.38a15.81,15.81,0,0,1,2,.73,6.11,6.11,0,0,1,1.49.94,3.69,3.69,0,0,1,.95,1.31,4.79,4.79,0,0,1,.33,1.88,5,5,0,0,1-.52,2.37,4.35,4.35,0,0,1-1.37,1.54,5.69,5.69,0,0,1-1.92.82,9.31,9.31,0,0,1-2.16.26,13.39,13.39,0,0,1-1.76-.13,15.55,15.55,0,0,1-1.8-.38,15.92,15.92,0,0,1-1.73-.57,12.09,12.09,0,0,1-1.53-.75l1.86-3.78a13,13,0,0,0,1.61.86,11.7,11.7,0,0,0,1.6.6,6.56,6.56,0,0,0,1.82.26,1.78,1.78,0,0,0,1-.19.56.56,0,0,0,.28-.49.72.72,0,0,0-.28-.57,2.67,2.67,0,0,0-.76-.41c-.32-.11-.69-.23-1.11-.35s-.87-.26-1.34-.42a11.33,11.33,0,0,1-1.79-.76,4.85,4.85,0,0,1-1.24-.93,3.24,3.24,0,0,1-.71-1.18A4.45,4.45,0,0,1,184.1,56a5.22,5.22,0,0,1,.48-2.3A4.8,4.8,0,0,1,185.87,52a5.9,5.9,0,0,1,1.87-1,7.06,7.06,0,0,1,2.22-.34,8.54,8.54,0,0,1,1.68.16,12.9,12.9,0,0,1,1.57.42,14.73,14.73,0,0,1,1.43.55c.44.2.84.39,1.19.57Z"/><polygon class="cls-3" points="209.28 62.72 209.28 66.47 198.11 66.47 198.11 50.79 209.09 50.79 209.09 54.54 202.41 54.54 202.41 56.75 208.11 56.75 208.11 60.24 202.41 60.24 202.41 62.72 209.28 62.72"/><path class="cls-3" d="M211.29,66.47V50.79h7.2a4.81,4.81,0,0,1,2.12.47,5.47,5.47,0,0,1,1.67,1.24,5.62,5.62,0,0,1,1.09,1.74,5.19,5.19,0,0,1,.4,2,5.57,5.57,0,0,1-.6,2.55,5.09,5.09,0,0,1-1.65,1.94l3.31,5.76H220l-2.76-4.82H215.6v4.82Zm4.31-8.57h2.72a1,1,0,0,0,.74-.44,2,2,0,0,0,.34-1.24A1.77,1.77,0,0,0,219,55a1.13,1.13,0,0,0-.79-.43H215.6Z"/><polygon class="cls-3" points="228.61 50.79 231.68 61.06 234.71 50.79 239.23 50.79 233.47 66.47 229.89 66.47 224.06 50.79 228.61 50.79"/><rect class="cls-3" x="240.43" y="50.79" width="4.31" height="15.68"/><path class="cls-3" d="M246.57,58.5a7.88,7.88,0,0,1,2.11-5.33,8.4,8.4,0,0,1,2.52-1.79,8.1,8.1,0,0,1,3.38-.68,7.91,7.91,0,0,1,3.95.94A6.1,6.1,0,0,1,261,54.12l-3.29,2.34a2.84,2.84,0,0,0-.59-1,3,3,0,0,0-.8-.59,3.44,3.44,0,0,0-.92-.31,4.94,4.94,0,0,0-.92-.09,3.22,3.22,0,0,0-2.7,1.32,4,4,0,0,0-.64,1.32,5.33,5.33,0,0,0-.21,1.47,5.15,5.15,0,0,0,.24,1.57,4,4,0,0,0,.71,1.32,3.41,3.41,0,0,0,1.14.92,3.23,3.23,0,0,0,1.51.34,4.07,4.07,0,0,0,.9-.1,3.06,3.06,0,0,0,.9-.33,2.93,2.93,0,0,0,.77-.59,2.7,2.7,0,0,0,.54-.9l3.51,2.1a4.33,4.33,0,0,1-1.07,1.54,6.75,6.75,0,0,1-1.63,1.15,8.55,8.55,0,0,1-2,.71,9.14,9.14,0,0,1-2,.24,7.31,7.31,0,0,1-3.19-.69,8.1,8.1,0,0,1-2.5-1.85,8.25,8.25,0,0,1-1.62-2.6,8.1,8.1,0,0,1-.57-3"/><polygon class="cls-3" points="273.86 62.72 273.86 66.47 262.69 66.47 262.69 50.79 273.67 50.79 273.67 54.54 267 54.54 267 56.75 272.69 56.75 272.69 60.24 267 60.24 267 62.72 273.86 62.72"/><path class="cls-3" d="M285.37,55.91a11.77,11.77,0,0,0-1.37-.7,11.26,11.26,0,0,0-1.33-.5,4.71,4.71,0,0,0-1.45-.23,2.16,2.16,0,0,0-.92.17.62.62,0,0,0-.34.6.69.69,0,0,0,.2.51,1.87,1.87,0,0,0,.57.36,6.91,6.91,0,0,0,.92.32l1.23.38a15.06,15.06,0,0,1,1.95.73,5.93,5.93,0,0,1,1.49.94,3.57,3.57,0,0,1,.95,1.31,4.79,4.79,0,0,1,.33,1.88,4.89,4.89,0,0,1-.52,2.37,4.25,4.25,0,0,1-1.37,1.54,5.53,5.53,0,0,1-1.92.82,9.23,9.23,0,0,1-2.15.26,13.54,13.54,0,0,1-1.77-.13,16.48,16.48,0,0,1-1.8-.38,15.75,15.75,0,0,1-1.72-.57,13,13,0,0,1-1.54-.75l1.86-3.78a13,13,0,0,0,1.61.86,12.22,12.22,0,0,0,1.6.6,6.67,6.67,0,0,0,1.82.26,1.82,1.82,0,0,0,1-.19.57.57,0,0,0,.27-.49.74.74,0,0,0-.27-.57,2.82,2.82,0,0,0-.76-.41c-.33-.11-.7-.23-1.12-.35s-.86-.26-1.34-.42a11.19,11.19,0,0,1-1.78-.76,4.52,4.52,0,0,1-1.24-.93,3.13,3.13,0,0,1-.72-1.18A4.71,4.71,0,0,1,275.5,56a5.37,5.37,0,0,1,.47-2.3,4.83,4.83,0,0,1,1.3-1.66,5.75,5.75,0,0,1,1.86-1,7.06,7.06,0,0,1,2.22-.34,8.4,8.4,0,0,1,1.68.16,13.57,13.57,0,0,1,1.58.42,14.51,14.51,0,0,1,1.42.55c.45.2.84.39,1.2.57Z"/><path class="cls-4" d="M73.41,44.57V32.05h5.75a3.81,3.81,0,0,1,1.69.38,4.41,4.41,0,0,1,1.34,1,4.53,4.53,0,0,1,.87,1.39,4.21,4.21,0,0,1,.32,1.58,4.44,4.44,0,0,1-.48,2A4.19,4.19,0,0,1,81.58,40l2.64,4.6H80.34l-2.2-3.84H76.85v3.84Zm3.44-6.84H79a.77.77,0,0,0,.59-.35,1.62,1.62,0,0,0,.27-1,1.43,1.43,0,0,0-.31-1,.91.91,0,0,0-.64-.34H76.85Z"/><path class="cls-4" d="M100.61,44.57l-.67-.7a6.06,6.06,0,0,1-1.58.67,6.67,6.67,0,0,1-1.65.21,4.86,4.86,0,0,1-1.91-.35,4.27,4.27,0,0,1-1.38-.92,3.84,3.84,0,0,1-.84-1.28,4,4,0,0,1-.28-1.44,3.37,3.37,0,0,1,.52-1.86,6,6,0,0,1,1.25-1.37,4.94,4.94,0,0,1-.8-1.22A3.08,3.08,0,0,1,93,35.12a3.35,3.35,0,0,1,.28-1.37,2.89,2.89,0,0,1,.77-1,3.6,3.6,0,0,1,1.16-.63,4.52,4.52,0,0,1,1.46-.22,5.55,5.55,0,0,1,1.35.17,3.52,3.52,0,0,1,1.18.53,2.68,2.68,0,0,1,.84.93,2.86,2.86,0,0,1,.32,1.39,3.4,3.4,0,0,1-.44,1.71A5.67,5.67,0,0,1,98.78,38l1.44,1.54a5.79,5.79,0,0,0,.3-1.07,6.89,6.89,0,0,0,.11-1.24h2.7a10.08,10.08,0,0,1-.32,2.44,8.15,8.15,0,0,1-.81,2l2.8,2.94Zm-3.55-2.43a2.54,2.54,0,0,0,1-.23l-2-2.13a1.32,1.32,0,0,0-.6,1,1.52,1.52,0,0,0,.08.44,1.35,1.35,0,0,0,.27.45,1.49,1.49,0,0,0,.48.35,1.74,1.74,0,0,0,.72.14m-1-7.16a.59.59,0,0,0,.13.39,4.39,4.39,0,0,0,.45.47,3.13,3.13,0,0,0,.51-.43.67.67,0,0,0,.16-.47.62.62,0,0,0-.17-.46.65.65,0,0,0-.45-.16.63.63,0,0,0-.47.19.67.67,0,0,0-.16.47"/><polygon class="cls-4" points="113.42 44.57 113.42 32.05 116.86 32.05 116.86 41.57 122.54 41.57 122.54 44.57 113.42 44.57"/><path class="cls-4" d="M141.39,38.21a6.34,6.34,0,0,1,.43-2.26,6.13,6.13,0,0,1,1.27-2,6.59,6.59,0,0,1,2-1.43,6.44,6.44,0,0,1,2.7-.54,6.26,6.26,0,0,1,3.14.75,4.93,4.93,0,0,1,2,2l-2.63,1.87a2.23,2.23,0,0,0-.47-.76,2.25,2.25,0,0,0-.64-.47,2.87,2.87,0,0,0-.73-.25,3.83,3.83,0,0,0-.73-.07,2.69,2.69,0,0,0-1.28.29,2.63,2.63,0,0,0-.89.76,3.36,3.36,0,0,0-.51,1.06,4.29,4.29,0,0,0-.16,1.17,4,4,0,0,0,.19,1.25,3.35,3.35,0,0,0,.56,1.06,2.7,2.7,0,0,0,.91.73,2.54,2.54,0,0,0,1.21.28,3.53,3.53,0,0,0,.72-.08,2.73,2.73,0,0,0,.72-.27,2.54,2.54,0,0,0,.62-.47,2.22,2.22,0,0,0,.43-.72l2.8,1.68A3.41,3.41,0,0,1,152.2,43a5.52,5.52,0,0,1-1.31.92,6.37,6.37,0,0,1-1.57.56,7.19,7.19,0,0,1-1.63.2,5.81,5.81,0,0,1-2.55-.56,6.48,6.48,0,0,1-2-1.47,6.69,6.69,0,0,1-1.3-2.08,6.52,6.52,0,0,1-.46-2.36"/><path class="cls-4" d="M167.16,44.68a6,6,0,0,1-2.59-.55,6.41,6.41,0,0,1-2-1.43,6.79,6.79,0,0,1-1.29-2,6.49,6.49,0,0,1-.46-2.37,6.13,6.13,0,0,1,.48-2.38,6.51,6.51,0,0,1,1.33-2,6.6,6.6,0,0,1,2-1.39,6.21,6.21,0,0,1,2.57-.52,6.1,6.1,0,0,1,2.59.54A6.41,6.41,0,0,1,173.1,36a6.32,6.32,0,0,1,.45,2.34,6.06,6.06,0,0,1-.48,2.38,6.16,6.16,0,0,1-1.32,2,6.46,6.46,0,0,1-2,1.4,6.22,6.22,0,0,1-2.57.53m-2.83-6.35a4.13,4.13,0,0,0,.17,1.22A3.24,3.24,0,0,0,165,40.6a2.7,2.7,0,0,0,.89.75,2.84,2.84,0,0,0,1.28.28,2.79,2.79,0,0,0,1.29-.29,2.75,2.75,0,0,0,.89-.76,3.21,3.21,0,0,0,.51-1.07,4.55,4.55,0,0,0,.17-1.22,4.14,4.14,0,0,0-.18-1.22,3,3,0,0,0-.54-1,2.81,2.81,0,0,0-.9-.73,2.75,2.75,0,0,0-1.26-.27,2.72,2.72,0,0,0-1.28.28,2.81,2.81,0,0,0-.89.75,3.28,3.28,0,0,0-.52,1.06,4.47,4.47,0,0,0-.16,1.21"/><polygon class="cls-4" points="185.9 38.42 185.9 44.57 182.46 44.57 182.46 32.05 185.14 32.05 190.17 38.42 190.17 32.05 193.61 32.05 193.61 44.57 190.87 44.57 185.9 38.42"/><path class="cls-4" d="M202.52,38.21A6.13,6.13,0,0,1,203,36a6.27,6.27,0,0,1,1.26-2,6.59,6.59,0,0,1,2-1.43,6.44,6.44,0,0,1,2.7-.54,6.33,6.33,0,0,1,3.15.75,4.84,4.84,0,0,1,2,2l-2.63,1.87a2.21,2.21,0,0,0-.46-.76,2.45,2.45,0,0,0-.65-.47,2.74,2.74,0,0,0-.73-.25,3.75,3.75,0,0,0-.73-.07,2.69,2.69,0,0,0-1.28.29,2.6,2.6,0,0,0-.88.76,3.16,3.16,0,0,0-.51,1.06,4,4,0,0,0-.17,1.17,4,4,0,0,0,.19,1.25,3.18,3.18,0,0,0,.57,1.06,2.66,2.66,0,0,0,.9.73,2.57,2.57,0,0,0,1.21.28,3.71,3.71,0,0,0,.73-.08,2.8,2.8,0,0,0,.71-.27,2.36,2.36,0,0,0,.62-.47,2.06,2.06,0,0,0,.43-.72l2.81,1.68a3.56,3.56,0,0,1-.86,1.23,5.32,5.32,0,0,1-1.31.92,6.23,6.23,0,0,1-1.57.56,7.12,7.12,0,0,1-1.63.2,5.81,5.81,0,0,1-2.55-.56,6.48,6.48,0,0,1-2-1.47,6.69,6.69,0,0,1-1.3-2.08,6.5,6.5,0,0,1-.45-2.36"/><polygon class="cls-4" points="231.76 41.57 231.76 44.57 222.84 44.57 222.84 32.05 231.6 32.05 231.6 35.05 226.28 35.05 226.28 36.81 230.83 36.81 230.83 39.6 226.28 39.6 226.28 41.57 231.76 41.57"/><path class="cls-4" d="M240.81,44.57V32.05h5.4a3.81,3.81,0,0,1,1.69.38,4.25,4.25,0,0,1,1.33,1,4.38,4.38,0,0,1,.88,1.39,4.21,4.21,0,0,1,.32,1.58,4.76,4.76,0,0,1-1.14,3,4.11,4.11,0,0,1-1.31,1,3.9,3.9,0,0,1-1.68.36h-2.05v3.84Zm3.44-6.84h1.82a.82.82,0,0,0,.59-.29,1.58,1.58,0,0,0,.27-1,1.4,1.4,0,0,0-.31-1.06,1,1,0,0,0-.64-.28h-1.73Z"/><polygon class="cls-4" points="269 35.05 265.4 35.05 265.4 44.57 261.96 44.57 261.96 35.05 258.35 35.05 258.35 32.05 269 32.05 269 35.05"/><path class="cls-4" d="M285.28,36.14a9.35,9.35,0,0,0-1.09-.56,10.05,10.05,0,0,0-1.07-.4A4,4,0,0,0,282,35a1.57,1.57,0,0,0-.74.15.48.48,0,0,0-.27.47.54.54,0,0,0,.16.41,1.59,1.59,0,0,0,.46.29,5.11,5.11,0,0,0,.73.25l1,.31a12.76,12.76,0,0,1,1.56.58,4.83,4.83,0,0,1,1.19.75,2.79,2.79,0,0,1,.76,1,3.91,3.91,0,0,1,.26,1.5,4,4,0,0,1-.41,1.89,3.44,3.44,0,0,1-1.1,1.23,4.79,4.79,0,0,1-1.53.66,7.7,7.7,0,0,1-1.72.2,9.75,9.75,0,0,1-1.41-.1,12.29,12.29,0,0,1-1.44-.3c-.47-.13-.93-.29-1.37-.46a9.37,9.37,0,0,1-1.23-.6l1.48-3a10,10,0,0,0,1.29.69,9.85,9.85,0,0,0,1.28.48,5.09,5.09,0,0,0,1.45.21,1.5,1.5,0,0,0,.79-.15.47.47,0,0,0,.22-.4.58.58,0,0,0-.22-.45,2.29,2.29,0,0,0-.61-.33l-.89-.28c-.34-.09-.69-.2-1.07-.33a9.3,9.3,0,0,1-1.43-.61,4.12,4.12,0,0,1-1-.74,2.71,2.71,0,0,1-.57-1,3.71,3.71,0,0,1-.18-1.21,4.12,4.12,0,0,1,.38-1.84,3.64,3.64,0,0,1,1-1.32,4.55,4.55,0,0,1,1.49-.8,5.47,5.47,0,0,1,1.77-.28,6.55,6.55,0,0,1,1.34.14,8.31,8.31,0,0,1,1.26.33c.41.14.79.28,1.14.44l.95.45Z"/><path class="cls-5" d="M23.84,60.14A23.3,23.3,0,0,1,21.2,51a.91.91,0,0,1,0-.17c0-.52-.05-1-.05-1.59v-.58a23.24,23.24,0,0,1,1.8-8.43c.31-.74.66-1.46,1-2.17a23.39,23.39,0,0,1,41.07,0c.38.71.73,1.43,1,2.17a23.45,23.45,0,0,1,1.8,8.43v.58c0,.54,0,1.07,0,1.59a.91.91,0,0,1,0,.17,23.38,23.38,0,0,1-41.2,13.31"/><line class="cls-6" x1="66.01" y1="40.06" x2="51.24" y2="40.06"/><path class="cls-7" d="M35.8,58.7l-.1,0c-.2.07-.4.16-.61.25-.66.27-1.36.6-2.09,1-.48.24-1,.5-1.46.79s-1,.58-1.48.91l-.46.3c-3.54,2.41-5,4.48-9.13,7.78a57.93,57.93,0,0,1-7.08,4.8.86.86,0,0,1-1.16-.17L9.09,69.73a.86.86,0,0,1,.28-1.14,57.83,57.83,0,0,1,7.09-4.78c4.64-2.65,7.09-3.17,10.65-5.57l.44-.31c.49-.33,1-.69,1.4-1s.88-.72,1.28-1.07c.63-.53,1.19-1.07,1.69-1.58l.44-.45"/><path class="cls-7" d="M60.55,53.82a50.1,50.1,0,0,1-15.26,4.67,43.46,43.46,0,0,1-10.43.16l-2.73-4.08a44,44,0,0,1,4-9.59,50.32,50.32,0,0,1,10-12.4Z"/><line class="cls-8" x1="28.95" y1="56.89" x2="31.54" y2="60.75"/><line class="cls-9" x1="26.88" y1="58.28" x2="29.46" y2="62.14"/><line class="cls-6" x1="39.39" y1="40.06" x2="23.09" y2="40.06"/><line class="cls-6" x1="33.5" y1="50.61" x2="21.21" y2="50.61"/><line class="cls-6" x1="67.71" y1="50.61" x2="58.37" y2="50.61"/></g></g></svg>