<svg id="Layer_1" data-name="Layer 1" xmlns="http://www.w3.org/2000/svg" viewBox="0 0 350 100.44"><defs><style>.cls-6,.cls-7{fill:none}.cls-2{clip-path:url(#clip-path)}.cls-3{fill:#405a7d}.cls-6,.cls-7{stroke:#405a7d;stroke-miterlimit:10}.cls-6{stroke-width:2.22px}.cls-7{stroke-width:1.1px}</style><clipPath id="clip-path"><path fill="none" d="M5.25 7.48h339.5v83.64H5.25z"/></clipPath></defs><g class="cls-2"><g class="cls-2"><path class="cls-3" d="M85.36 68.48V50.22h7a10.29 10.29 0 0 1 4 .72 8.24 8.24 0 0 1 2.88 2 8.33 8.33 0 0 1 1.76 2.84 10.6 10.6 0 0 1 .59 3.54 10.25 10.25 0 0 1-.66 3.77A8.09 8.09 0 0 1 99.07 66a8.28 8.28 0 0 1-2.91 1.85 10.34 10.34 0 0 1-3.78.66zm11.14-9.16a6.25 6.25 0 0 0-.29-1.93 4.36 4.36 0 0 0-.81-1.49 3.59 3.59 0 0 0-1.3-1 4 4 0 0 0-1.72-.35h-2v9.52h2a4.12 4.12 0 0 0 1.75-.36 3.69 3.69 0 0 0 1.3-1 4.64 4.64 0 0 0 .8-1.51 6.48 6.48 0 0 0 .27-1.91m7.27 9.19V50.22h8.39a5.52 5.52 0 0 1 2.47.55 6.5 6.5 0 0 1 1.94 1.44 6.78 6.78 0 0 1 1.28 2 6.25 6.25 0 0 1 .46 2.3 6.44 6.44 0 0 1-.7 3 6.08 6.08 0 0 1-1.93 2.25l3.86 6.71h-5.66l-3.21-5.61h-1.88v5.61zm5-10H112a1.11 1.11 0 0 0 .86-.52 2.33 2.33 0 0 0 .4-1.44 2.07 2.07 0 0 0-.47-1.45 1.32 1.32 0 0 0-.92-.5h-3zm14.99-8.26l3.27 7.89 3.34-7.89h5.46l-6.31 12.21v6.05h-4.99v-6.1l-6.2-12.16h5.43z"/><path class="cls-3" d="M143 50.22h4.61l1.59 5.63 1.62-5.63h4.61l-3.01 8.72 1.31 3.8 3.93-12.52h5.46l-7.15 18.26h-4.17l-2.6-6.53-2.57 6.53h-4.17l-7.15-18.26h5.43l3.96 12.52 1.26-3.8-2.96-8.72zm24.59 0h4.58l6.33 18.26h-5.09l-1.11-3.58h-4.86l-1.08 3.58h-5.12zm3.91 11.34l-1.62-5.66-1.7 5.66zm8.52 6.92V50.22h5.01v13.89h8.29v4.37h-13.3zm15.05 0V50.22h5.01v13.89h8.29v4.37h-13.3zm31.15-12.3a14.2 14.2 0 0 0-1.6-.82 13.69 13.69 0 0 0-1.55-.58 5.67 5.67 0 0 0-1.69-.27 2.31 2.31 0 0 0-1.07.21.72.72 0 0 0-.39.69.77.77 0 0 0 .23.59 2 2 0 0 0 .67.43 8 8 0 0 0 1.06.37l1.43.44a19.2 19.2 0 0 1 2.28.85 7 7 0 0 1 1.73 1.09 4.25 4.25 0 0 1 1.11 1.53 5.5 5.5 0 0 1 .39 2.19 5.75 5.75 0 0 1-.61 2.76 4.93 4.93 0 0 1-1.59 1.79 6.74 6.74 0 0 1-2.24 1 11.24 11.24 0 0 1-2.51.29 14.7 14.7 0 0 1-2.06-.15 18.94 18.94 0 0 1-2.09-.44 17.54 17.54 0 0 1-2-.67 14.16 14.16 0 0 1-1.79-.87l2.16-4.4a16.08 16.08 0 0 0 1.88 1 13.36 13.36 0 0 0 1.87.7 7.59 7.59 0 0 0 2.12.3 2.2 2.2 0 0 0 1.14-.21.66.66 0 0 0 .32-.58.81.81 0 0 0-.32-.66 2.94 2.94 0 0 0-.89-.48c-.37-.13-.81-.27-1.29-.41s-1-.3-1.56-.49a13.41 13.41 0 0 1-2.08-.88 5.53 5.53 0 0 1-1.44-1.08A4 4 0 0 1 215 58a5.35 5.35 0 0 1-.27-1.77 6.11 6.11 0 0 1 .55-2.68 5.53 5.53 0 0 1 1.51-1.93 6.88 6.88 0 0 1 2.21-1.16 8.21 8.21 0 0 1 2.59-.4 10.48 10.48 0 0 1 2 .19 17.07 17.07 0 0 1 1.84.49 16.88 16.88 0 0 1 1.66.65l1.39.65zm17.82 7.93v4.37h-13.01V50.22h12.78v4.37h-7.77v2.57h6.64v4.07h-6.64v2.88h8zm2.34 4.37V50.22h8.39a5.52 5.52 0 0 1 2.47.55 6.48 6.48 0 0 1 3.21 3.47 6.06 6.06 0 0 1 .47 2.3 6.44 6.44 0 0 1-.7 3 6.08 6.08 0 0 1-1.93 2.25l3.86 6.71h-5.66l-3.21-5.61h-1.88v5.61zm5-10h3.17a1.11 1.11 0 0 0 .86-.52 2.33 2.33 0 0 0 .4-1.44 2.07 2.07 0 0 0-.47-1.45 1.32 1.32 0 0 0-.92-.5h-3zm15.17-8.26l3.58 11.96 3.52-11.96h5.27l-6.71 18.26h-4.17l-6.79-18.26h5.3zm13.76 0h5.02v18.26h-5.02zm7.15 8.97a9.12 9.12 0 0 1 2.47-6.2 9.53 9.53 0 0 1 2.94-2.08 10.09 10.09 0 0 1 8.52.3 7.14 7.14 0 0 1 2.9 2.89l-3.84 2.73a3.07 3.07 0 0 0-.68-1.11 3.31 3.31 0 0 0-.94-.69 4.15 4.15 0 0 0-1.06-.36 5.8 5.8 0 0 0-1.07-.11 3.94 3.94 0 0 0-1.87.43 3.8 3.8 0 0 0-1.28 1.1 4.65 4.65 0 0 0-.75 1.55 6.3 6.3 0 0 0-.24 1.71 5.82 5.82 0 0 0 .28 1.82 4.79 4.79 0 0 0 .82 1.55 4 4 0 0 0 1.34 1.06 3.77 3.77 0 0 0 1.76.4 4.75 4.75 0 0 0 1.05-.11 4 4 0 0 0 1.05-.39 3.72 3.72 0 0 0 .9-.69 3.36 3.36 0 0 0 .63-1l4.09 2.44a5.22 5.22 0 0 1-1.25 1.8 8 8 0 0 1-1.9 1.34 10.67 10.67 0 0 1-4.67 1.1 8.45 8.45 0 0 1-3.72-.81 9.55 9.55 0 0 1-2.94-2.18 10.08 10.08 0 0 1-1.89-3 9.45 9.45 0 0 1-.67-3.45m31.82 4.88v4.37h-13.02V50.22h12.79v4.37h-7.77v2.57h6.63v4.07h-6.63v2.88h8zm13.4-7.93a14.06 14.06 0 0 0-1.59-.82 14.65 14.65 0 0 0-1.56-.58 5.67 5.67 0 0 0-1.69-.27 2.27 2.27 0 0 0-1.06.21.72.72 0 0 0-.4.69.77.77 0 0 0 .23.59 2.09 2.09 0 0 0 .67.43 7.69 7.69 0 0 0 1.07.37c.42.12.89.27 1.42.44a19.2 19.2 0 0 1 2.28.85 7.07 7.07 0 0 1 1.74 1.09 4.23 4.23 0 0 1 1.1 1.53 5.5 5.5 0 0 1 .39 2.19 5.63 5.63 0 0 1-.61 2.76 4.93 4.93 0 0 1-1.59 1.79 6.74 6.74 0 0 1-2.24 1 11.24 11.24 0 0 1-2.51.29 14.7 14.7 0 0 1-2.06-.15 18.94 18.94 0 0 1-2.09-.44 17.54 17.54 0 0 1-2-.67 14.16 14.16 0 0 1-1.79-.87l2.17-4.4a15.18 15.18 0 0 0 1.87 1 13.36 13.36 0 0 0 1.87.7 7.59 7.59 0 0 0 2.12.3 2.2 2.2 0 0 0 1.14-.21.67.67 0 0 0 .33-.58.82.82 0 0 0-.33-.66 3 3 0 0 0-.88-.48c-.38-.13-.81-.27-1.3-.41s-1-.3-1.56-.49a13.84 13.84 0 0 1-2.08-.88 5.53 5.53 0 0 1-1.44-1.08 4 4 0 0 1-.84-1.38 5.35 5.35 0 0 1-.27-1.77 6.25 6.25 0 0 1 .55-2.68 5.65 5.65 0 0 1 1.51-1.93 6.88 6.88 0 0 1 2.17-1.17 8.21 8.21 0 0 1 2.59-.4 10.4 10.4 0 0 1 1.95.19 17.07 17.07 0 0 1 1.84.49 16 16 0 0 1 1.66.65c.52.23 1 .45 1.39.65z"/><path d="M85.8 43V28.39h6.7a4.48 4.48 0 0 1 2 .44A5.26 5.26 0 0 1 96 30a5.6 5.6 0 0 1 1 1.63 5 5 0 0 1 .37 1.84 5.2 5.2 0 0 1-.56 2.37 4.88 4.88 0 0 1-1.54 1.8L98.39 43h-4.52l-2.57-4.5h-1.49V43zm4-8h2.52a.89.89 0 0 0 .68-.4 1.87 1.87 0 0 0 .32-1.15 1.66 1.66 0 0 0-.32-1.17 1.06 1.06 0 0 0-.74-.4h-2.45zm27.68 8l-.78-.82a7.22 7.22 0 0 1-1.84.78 7.89 7.89 0 0 1-1.92.24 5.51 5.51 0 0 1-2.23-.41 4.83 4.83 0 0 1-1.6-1.07 4.2 4.2 0 0 1-1-1.49 4.48 4.48 0 0 1-.33-1.67 3.81 3.81 0 0 1 .61-2.17 6.66 6.66 0 0 1 1.45-1.59 6.1 6.1 0 0 1-.93-1.43 3.43 3.43 0 0 1-.27-1.38 3.78 3.78 0 0 1 .33-1.6 3.41 3.41 0 0 1 .9-1.18 4 4 0 0 1 1.34-.73 5.48 5.48 0 0 1 1.71-.25 6.37 6.37 0 0 1 1.57.19 4.32 4.32 0 0 1 1.38.62 3.1 3.1 0 0 1 1 1.09 3.22 3.22 0 0 1 .37 1.61 3.9 3.9 0 0 1-.51 2 6.34 6.34 0 0 1-1.38 1.63l1.65 1.75a7.22 7.22 0 0 0 .35-1.24 8.26 8.26 0 0 0 .12-1.45h3.14a10.82 10.82 0 0 1-.37 2.85 9.48 9.48 0 0 1-.94 2.27l3.29 3.45zm-4.13-2.84a3.06 3.06 0 0 0 1.21-.26l-2.32-2.49a1.55 1.55 0 0 0-.7 1.15 1.61 1.61 0 0 0 .09.5 1.59 1.59 0 0 0 .88.94 1.94 1.94 0 0 0 .84.16m-1.15-8.36a.73.73 0 0 0 .15.46 4.89 4.89 0 0 0 .53.55 3 3 0 0 0 .59-.51.76.76 0 0 0 .19-.54.67.67 0 0 0-.72-.72.68.68 0 0 0-.55.22.76.76 0 0 0-.19.54m20.19 11.18V28.39h4.01v11.09h6.61v3.5h-10.62zM165 35.56a7.24 7.24 0 0 1 2-5 7.86 7.86 0 0 1 9.15-1.43 5.65 5.65 0 0 1 2.31 2.31l-3.06 2.18a2.63 2.63 0 0 0-.54-.88 3.06 3.06 0 0 0-.75-.56 3.33 3.33 0 0 0-.86-.28 4.17 4.17 0 0 0-.85-.09 3.18 3.18 0 0 0-1.49.34 3.07 3.07 0 0 0-1 .89 3.89 3.89 0 0 0-.59 1.23 5 5 0 0 0-.2 1.37 4.68 4.68 0 0 0 .23 1.45 3.78 3.78 0 0 0 .66 1.24 3.33 3.33 0 0 0 1 .85 3.11 3.11 0 0 0 1.41.32 3.44 3.44 0 0 0 .84-.1 3.25 3.25 0 0 0 .84-.3 3.18 3.18 0 0 0 .72-.56 2.36 2.36 0 0 0 .5-.83l3.27 2a4.25 4.25 0 0 1-1 1.44 6.6 6.6 0 0 1-1.59 1.07 7.51 7.51 0 0 1-1.83.65 7.89 7.89 0 0 1-1.9.23 6.66 6.66 0 0 1-3-.65 7.48 7.48 0 0 1-2.27-1.71 7.82 7.82 0 0 1-1.51-2.43 7.35 7.35 0 0 1-.53-2.75M195 43.1a7 7 0 0 1-3-.64 7.41 7.41 0 0 1-2.32-1.67 7.7 7.7 0 0 1-1.5-2.37 7.28 7.28 0 0 1-.53-2.76 7.17 7.17 0 0 1 .55-2.77 7.45 7.45 0 0 1 1.55-2.35 7.71 7.71 0 0 1 2.36-1.63 7.36 7.36 0 0 1 3-.6 6.93 6.93 0 0 1 3 .64 7.32 7.32 0 0 1 2.33 1.68 7.57 7.57 0 0 1 2 5.12 7.09 7.09 0 0 1-.56 2.76 7.45 7.45 0 0 1-3.89 4 7.21 7.21 0 0 1-3 .62m-3.31-7.39a4.83 4.83 0 0 0 .21 1.42 3.78 3.78 0 0 0 .61 1.22 3.14 3.14 0 0 0 1 .87 3.5 3.5 0 0 0 3 0 3.09 3.09 0 0 0 1-.88 3.79 3.79 0 0 0 .59-1.25 4.87 4.87 0 0 0 .2-1.42 5.18 5.18 0 0 0-.2-1.42 3.63 3.63 0 0 0-.63-1.22 3.1 3.1 0 0 0-1.05-.84 3.25 3.25 0 0 0-1.47-.32 3.18 3.18 0 0 0-1.49.33 3.06 3.06 0 0 0-1 .88 3.71 3.71 0 0 0-.6 1.23 5.16 5.16 0 0 0-.2 1.41m25.16.06v7.17h-4.01V28.39h3.13l5.85 7.42v-7.42h4.01v14.59h-3.19l-5.79-7.17zm19.35-.25a7.24 7.24 0 0 1 2-5 7.56 7.56 0 0 1 2.32-1.56 7.28 7.28 0 0 1 3.14-.64 7.41 7.41 0 0 1 3.67.87 5.71 5.71 0 0 1 2.31 2.31l-3.06 2.18a2.49 2.49 0 0 0-.55-.88 2.72 2.72 0 0 0-.75-.56 3.26 3.26 0 0 0-.85-.28 4.32 4.32 0 0 0-.85-.09 3.15 3.15 0 0 0-1.49.34 3.07 3.07 0 0 0-1 .89 3.71 3.71 0 0 0-.6 1.23 5 5 0 0 0-.19 1.37 4.4 4.4 0 0 0 .23 1.45 4 4 0 0 0 .65 1.24 3.27 3.27 0 0 0 1.06.85 3.11 3.11 0 0 0 1.41.32 3.56 3.56 0 0 0 .84-.1 3.06 3.06 0 0 0 .83-.3 2.79 2.79 0 0 0 .72-.56 2.54 2.54 0 0 0 .51-.83l3.26 2a4.22 4.22 0 0 1-1 1.44 6.66 6.66 0 0 1-1.53 1.07 7.29 7.29 0 0 1-1.82.65 8 8 0 0 1-1.9.23 6.6 6.6 0 0 1-3-.65 7.48 7.48 0 0 1-2.32-1.71 7.64 7.64 0 0 1-1.51-2.43 7.36 7.36 0 0 1-.54-2.75m34.07 3.82v3.5h-10.39V28.39h10.21v3.49h-6.21v2.06h5.31v3.24h-5.31v2.3h6.39zM280.76 43V28.39h6.29a4.48 4.48 0 0 1 2 .44 5.26 5.26 0 0 1 1.52 1.17 5.4 5.4 0 0 1 1 1.63 4.8 4.8 0 0 1 .37 1.84 5.31 5.31 0 0 1-.35 1.88 5.24 5.24 0 0 1-1 1.62 4.59 4.59 0 0 1-3.48 1.55h-2.38V43zm4-8h2.12a1 1 0 0 0 .68-.34 1.77 1.77 0 0 0 .32-1.22 1.61 1.61 0 0 0-.37-1.24 1.12 1.12 0 0 0-.74-.33h-2zm28.83-3.12h-4.19v11.1h-4.01v-11.1h-4.21v-3.49h12.41v3.49zm18.96 1.28a10.19 10.19 0 0 0-1.27-.66A11.64 11.64 0 0 0 330 32a4.33 4.33 0 0 0-1.35-.22 1.86 1.86 0 0 0-.85.17.57.57 0 0 0-.32.55.61.61 0 0 0 .19.47 1.56 1.56 0 0 0 .53.34 8.09 8.09 0 0 0 .85.3c.34.1.72.21 1.14.35a15.15 15.15 0 0 1 1.82.68 5.77 5.77 0 0 1 1.39.87 3.35 3.35 0 0 1 .88 1.22 4.38 4.38 0 0 1 .31 1.75 4.63 4.63 0 0 1-.48 2.21 4.12 4.12 0 0 1-1.28 1.43 5.49 5.49 0 0 1-1.78.77 9.18 9.18 0 0 1-2 .23 11.63 11.63 0 0 1-1.64-.12 14.34 14.34 0 0 1-1.68-.35 16.65 16.65 0 0 1-1.6-.53 11.17 11.17 0 0 1-1.43-.7l1.73-3.52a12 12 0 0 0 1.5.81 10.62 10.62 0 0 0 1.49.55 6.07 6.07 0 0 0 1.69.25 1.7 1.7 0 0 0 .92-.18.53.53 0 0 0 .26-.46.66.66 0 0 0-.26-.52 2.24 2.24 0 0 0-.71-.38c-.3-.11-.65-.22-1-.33s-.8-.24-1.24-.39a11.64 11.64 0 0 1-1.67-.71 4.76 4.76 0 0 1-1.15-.87 3 3 0 0 1-.66-1.09 4.15 4.15 0 0 1-.22-1.42 5 5 0 0 1 .44-2.14 4.58 4.58 0 0 1 1.2-1.54 5.4 5.4 0 0 1 1.74-.93 6.41 6.41 0 0 1 2.07-.32 8.09 8.09 0 0 1 1.56.15 14.43 14.43 0 0 1 1.47.39 13.45 13.45 0 0 1 1.32.52c.41.18.78.36 1.11.52z" fill="#778393"/><path d="M28.07 61.1A27.09 27.09 0 0 1 25 50.43a1.34 1.34 0 0 0 0-.2c0-.61-.06-1.22-.06-1.85v-.68A26.78 26.78 0 0 1 27 37.89a25.53 25.53 0 0 1 1.21-2.53 27.24 27.24 0 0 1 47.83 0 28.06 28.06 0 0 1 1.22 2.53 27.19 27.19 0 0 1 2.09 9.81v.68c0 .63 0 1.24-.05 1.85v.2a27.22 27.22 0 0 1-48 15.49" stroke-width="2.53" stroke-miterlimit="10" stroke="#405a7d" fill="none"/><path class="cls-6" d="M77.18 37.72h-17.2"/><path class="cls-7" d="M42 59.43h-.12c-.23.08-.47.18-.71.29-.77.31-1.58.69-2.44 1.13-.55.28-1.12.58-1.7.92s-1.13.67-1.71 1l-.54.36C30.65 66 29 68.44 24.15 72.29a67.12 67.12 0 0 1-8.25 5.59 1 1 0 0 1-1.36-.2l-3.65-5.41a1 1 0 0 1 .33-1.27 66.33 66.33 0 0 1 8.25-5.57c5.4-3.08 8.26-3.69 12.41-6.49l.51-.35c.57-.4 1.12-.81 1.63-1.22s1-.83 1.49-1.24c.73-.63 1.39-1.25 2-1.84l.53-.53"/><path class="cls-7" d="M70.82 53.75a58.63 58.63 0 0 1-17.77 5.43 50.66 50.66 0 0 1-12.15.19l-3.18-4.75a51.28 51.28 0 0 1 4.72-11.16A58.23 58.23 0 0 1 54.11 29z"/><path stroke-width=".83" stroke="#3f5a7e" stroke-miterlimit="10" fill="none" d="M34.02 57.32l3.01 4.5"/><path stroke="#3f5a7e" stroke-width="1.1" stroke-miterlimit="10" fill="none" d="M31.6 58.94l3.01 4.5"/><path class="cls-6" d="M46.17 37.72H27.2M39.31 50h-14.3m54.15 0H68.28"/></g></g></svg>