<svg id="Layer_1" data-name="Layer 1" xmlns="http://www.w3.org/2000/svg" viewBox="0 0 300 100"><defs><style>.cls-1{fill:#0d8a44;}.cls-10,.cls-2,.cls-5,.cls-8{fill:none;stroke-miterlimit:10;}.cls-10,.cls-2,.cls-8{stroke:#fff;}.cls-2,.cls-5{stroke-width:0.42px;}.cls-3,.cls-9{fill:#0d8b44;}.cls-4{fill:#f8dfea;}.cls-5{stroke:#ae6487;}.cls-6{fill:#fffbfd;}.cls-7,.cls-9{font-size:24.64px;font-family:MerriweatherUltraBold-Italic, MerriweatherUltraBold;font-style:italic;}.cls-7{fill:#ae6487;}.cls-8{stroke-width:0.84px;}.cls-10{stroke-linecap:round;stroke-width:1.26px;}</style></defs><title>cherry-blossom</title><path class="cls-1" d="M140.87,63.74c-.09-1.72-.11-2.14-1.54-3.17-3.07-2.2-7.15-3.82-11-2.87-1,.25.59.73,1.55,1,1.65.45,4.38,2.27,4.93,4.27a5.35,5.35,0,0,0,2.36,3.24,35.33,35.33,0,0,1,2.92,2.37c.36.37.75.78,1.12,1.14-.07-.6-.11-1.56-.19-2.1-.17-1.21-.12-2.9-.17-3.88"/><path class="cls-2" d="M140.87,63.74c-.09-1.72-.11-2.14-1.54-3.17-3.07-2.2-7.15-3.82-11-2.87-1,.25.59.73,1.55,1,1.65.45,4.38,2.27,4.93,4.27a5.35,5.35,0,0,0,2.36,3.24,35.33,35.33,0,0,1,2.92,2.37c.36.37.75.78,1.12,1.14-.07-.6-.11-1.56-.19-2.1C140.87,66.41,140.92,64.72,140.87,63.74Z"/><path class="cls-3" d="M155.81,39.66c-3.84,2-9.91,11.66-12.43,19.76a13.22,13.22,0,0,1-1.2,3.11,7.72,7.72,0,0,1-1-2.3c-1.37-4.33-5.41-11.79-8-14.77-2.34-2.71-4.45-4.47-4.86-4.06A8.19,8.19,0,0,0,130,43.79c2.74,3.28,6.22,10,8,15.36,2.23,6.71,2.75,7.74,2,11.79h4.38c-.34-1.59-.56-2.72-.56-3,0-.42.84-3.58,1.86-7,2.18-7.28,6.2-15.69,9.07-19,2-2.25,2.3-3,1-2.34"/><path class="cls-2" d="M155.81,39.66c-3.84,2-9.91,11.66-12.43,19.76a13.22,13.22,0,0,1-1.2,3.11,7.72,7.72,0,0,1-1-2.3c-1.37-4.33-5.41-11.79-8-14.77-2.34-2.71-4.45-4.47-4.86-4.06A8.19,8.19,0,0,0,130,43.79c2.74,3.28,6.22,10,8,15.36,2.23,6.71,2.75,7.74,2,11.79h4.38c-.34-1.59-.56-2.72-.56-3,0-.42.84-3.58,1.86-7,2.18-7.28,6.2-15.69,9.07-19C156.76,39.75,157.09,39,155.81,39.66Z"/><path class="cls-4" d="M127.41,20.74c0,2.8-.64,9.68-2,9.68h-.81c-1.38,0-2-6.89-2-9.66,0-4.18,1.27-9.67,2.39-9.67s2.44,5.47,2.44,9.65"/><path class="cls-5" d="M127.41,20.74c0,2.8-.64,9.68-2,9.68h-.81c-1.38,0-2-6.89-2-9.66,0-4.18,1.27-9.67,2.39-9.67S127.41,16.56,127.41,20.74Z"/><path class="cls-4" d="M122.29,48.61c0-2.75.62-9.52,2-9.52h.81c1.35,0,2,6.78,2,9.51,0,4.11-1.25,9.52-2.35,9.52s-2.4-5.39-2.4-9.51"/><path class="cls-5" d="M122.29,48.61c0-2.75.62-9.52,2-9.52h.81c1.35,0,2,6.78,2,9.51,0,4.11-1.25,9.52-2.35,9.52S122.29,52.73,122.29,48.61Z"/><path class="cls-4" d="M111.57,32.17c2.59,0,9,.66,9,2.09v.86c0,1.44-6.38,2.1-8.94,2.1-3.87,0-9-1.33-9-2.5s5.07-2.55,8.94-2.55"/><path class="cls-5" d="M111.57,32.17c2.59,0,9,.66,9,2.09v.86c0,1.44-6.38,2.1-8.94,2.1-3.87,0-9-1.33-9-2.5S107.7,32.17,111.57,32.17Z"/><path class="cls-4" d="M137.76,32.17c-2.59,0-9,.66-9,2.09v.86c0,1.44,6.38,2.1,8.94,2.1,3.87,0,9-1.33,9-2.5s-5.07-2.55-8.94-2.55"/><path class="cls-5" d="M137.76,32.17c-2.59,0-9,.66-9,2.09v.86c0,1.44,6.38,2.1,8.94,2.1,3.87,0,9-1.33,9-2.5S141.63,32.17,137.76,32.17Z"/><path class="cls-4" d="M116.94,23.2c1.86,2,6,7.32,5,8.35l-.58.61c-1,1-6-3.36-7.83-5.32-2.78-2.95-5.54-7.79-4.75-8.63s5.36,2,8.14,5"/><path class="cls-5" d="M116.94,23.2c1.86,2,6,7.32,5,8.35l-.58.61c-1,1-6-3.36-7.83-5.32-2.78-2.95-5.54-7.79-4.75-8.63S114.16,20.25,116.94,23.2Z"/><path class="cls-4" d="M135.48,43.11c-1.83-2-6.77-6.27-7.73-5.26l-.57.61c-1,1,3.12,6.28,4.93,8.2,2.74,2.91,7.22,5.8,8,5s-1.89-5.61-4.63-8.52"/><path class="cls-5" d="M135.48,43.11c-1.83-2-6.77-6.27-7.73-5.26l-.57.61c-1,1,3.12,6.28,4.93,8.2,2.74,2.91,7.22,5.8,8,5S138.22,46,135.48,43.11Z"/><path class="cls-4" d="M136,26.78c-1.83,1.95-6.77,6.27-7.73,5.25l-.57-.6c-1-1,3.12-6.28,4.93-8.21,2.74-2.91,7.21-5.79,8-5s-1.88,5.61-4.62,8.52"/><path class="cls-5" d="M136,26.78c-1.83,1.95-6.77,6.27-7.73,5.25l-.57-.6c-1-1,3.12-6.28,4.93-8.21,2.74-2.91,7.21-5.79,8-5S138.69,23.87,136,26.78Z"/><path class="cls-4" d="M113.36,42.62c1.84-1.95,6.78-6.27,7.73-5.25l.57.61c1,1-3.11,6.27-4.93,8.2-2.73,2.91-7.21,5.8-8,5s1.89-5.62,4.62-8.53"/><path class="cls-5" d="M113.36,42.62c1.84-1.95,6.78-6.27,7.73-5.25l.57.61c1,1-3.11,6.27-4.93,8.2-2.73,2.91-7.21,5.8-8,5S110.63,45.53,113.36,42.62Z"/><path class="cls-4" d="M132.54,22.9c-1,2.6-3.91,8.75-5.19,8.22l-.76-.32c-1.28-.54.51-7.19,1.46-9.76,1.44-3.89,4.51-8.51,5.55-8.08s.38,6-1.06,9.94"/><path class="cls-5" d="M132.54,22.9c-1,2.6-3.91,8.75-5.19,8.22l-.76-.32c-1.28-.54.51-7.19,1.46-9.76,1.44-3.89,4.51-8.51,5.55-8.08S134,19,132.54,22.9Z"/><path class="cls-4" d="M117.6,46.64c.94-2.56,3.85-8.62,5.11-8.1l.75.32c1.26.53-.5,7.08-1.44,9.61-1.42,3.83-4.44,8.38-5.46,8s-.38-6,1-9.78"/><path class="cls-5" d="M117.6,46.64c.94-2.56,3.85-8.62,5.11-8.1l.75.32c1.26.53-.5,7.08-1.44,9.61-1.42,3.83-4.44,8.38-5.46,8S116.18,50.47,117.6,46.64Z"/><path class="cls-4" d="M121.68,20.92c1,2.56,3,9.13,1.79,9.72l-.74.34c-1.27.59-4.43-5.46-5.46-8-1.58-3.83-2.47-9.41-1.45-9.88s4.29,4,5.86,7.82"/><path class="cls-5" d="M121.68,20.92c1,2.56,3,9.13,1.79,9.72l-.74.34c-1.27.59-4.43-5.46-5.46-8-1.58-3.83-2.47-9.41-1.45-9.88S120.11,17.08,121.68,20.92Z"/><path class="cls-4" d="M111.89,37.66c2.38-1.1,8.46-3.19,9-1.88.23.55.07.18.32.79.54,1.32-5.06,4.63-7.41,5.71-3.55,1.65-8.71,2.59-9.15,1.52s3.69-4.49,7.24-6.14"/><path class="cls-5" d="M111.89,37.66c2.38-1.1,8.46-3.19,9-1.88.23.55.07.18.32.79.54,1.32-5.06,4.63-7.41,5.71-3.55,1.65-8.71,2.59-9.15,1.52S108.34,39.31,111.89,37.66Z"/><path class="cls-4" d="M127.7,48.59c-1-2.53-3-9-1.77-9.57l.74-.34c1.25-.58,4.36,5.38,5.38,7.88,1.54,3.77,2.43,9.26,1.42,9.73s-4.22-3.93-5.77-7.7"/><path class="cls-5" d="M127.7,48.59c-1-2.53-3-9-1.77-9.57l.74-.34c1.25-.58,4.36,5.38,5.38,7.88,1.54,3.77,2.43,9.26,1.42,9.73S129.25,52.36,127.7,48.59Z"/><path class="cls-4" d="M135.67,42.34c-2.41-1-8.11-4.1-7.62-5.44l.3-.79c.5-1.35,6.66.53,9,1.52,3.6,1.51,7.88,4.72,7.47,5.82s-5.59.4-9.19-1.11"/><path class="cls-5" d="M135.67,42.34c-2.41-1-8.11-4.1-7.62-5.44l.3-.79c.5-1.35,6.66.53,9,1.52,3.6,1.51,7.88,4.72,7.47,5.82S139.27,43.85,135.67,42.34Z"/><path class="cls-4" d="M137.5,31.74c-2.37,1.1-8.46,3.2-9,1.88l-.32-.79c-.54-1.32,5.06-4.63,7.41-5.71,3.55-1.65,8.71-2.59,9.15-1.51s-3.69,4.48-7.24,6.13"/><path class="cls-5" d="M137.5,31.74c-2.37,1.1-8.46,3.2-9,1.88l-.32-.79c-.54-1.32,5.06-4.63,7.41-5.71,3.55-1.65,8.71-2.59,9.15-1.51S141.05,30.09,137.5,31.74Z"/><path class="cls-4" d="M113,27.09c2.45,1,8.24,4.16,7.73,5.52l-.3.81c-.5,1.36-6.76-.54-9.18-1.55-3.66-1.53-8-4.8-7.59-5.91s5.68-.4,9.34,1.13"/><path class="cls-5" d="M113,27.09c2.45,1,8.24,4.16,7.73,5.52l-.3.81c-.5,1.36-6.76-.54-9.18-1.55-3.66-1.53-8-4.8-7.59-5.91S109.37,25.56,113,27.09Z"/><path class="cls-6" d="M129.54,34.83a4.88,4.88,0,1,1-4.87-5.18,5,5,0,0,1,4.87,5.18"/><path class="cls-5" d="M129.54,34.83a4.88,4.88,0,1,1-4.87-5.18A5,5,0,0,1,129.54,34.83Z"/><path class="cls-4" d="M161.18,16.76c0,2.8-.63,9.68-2,9.68h-.82c-1.37,0-2-6.89-2-9.66,0-4.18,1.27-9.67,2.39-9.67s2.43,5.47,2.43,9.65"/><path class="cls-5" d="M161.18,16.76c0,2.8-.63,9.68-2,9.68h-.82c-1.37,0-2-6.89-2-9.66,0-4.18,1.27-9.67,2.39-9.67S161.18,12.58,161.18,16.76Z"/><path class="cls-4" d="M156.07,44.63c0-2.75.62-9.52,2-9.52h.81c1.35,0,2,6.78,2,9.5,0,4.12-1.25,9.53-2.35,9.53s-2.4-5.39-2.4-9.51"/><path class="cls-5" d="M156.07,44.63c0-2.75.62-9.52,2-9.52h.81c1.35,0,2,6.78,2,9.5,0,4.12-1.25,9.53-2.35,9.53S156.07,48.75,156.07,44.63Z"/><path class="cls-4" d="M145.35,28.19c2.59,0,9,.66,9,2.09v.86c0,1.44-6.38,2.1-8.94,2.1-3.87,0-9-1.33-9-2.5s5.07-2.55,8.94-2.55"/><path class="cls-5" d="M145.35,28.19c2.59,0,9,.66,9,2.09v.86c0,1.44-6.38,2.1-8.94,2.1-3.87,0-9-1.33-9-2.5S141.48,28.19,145.35,28.19Z"/><path class="cls-4" d="M171.54,28.19c-2.59,0-9,.66-9,2.09v.86c0,1.44,6.38,2.1,8.94,2.1,3.87,0,9-1.33,9-2.5s-5.07-2.55-8.94-2.55"/><path class="cls-5" d="M171.54,28.19c-2.59,0-9,.66-9,2.09v.86c0,1.44,6.38,2.1,8.94,2.1,3.87,0,9-1.33,9-2.5S175.41,28.19,171.54,28.19Z"/><path class="cls-4" d="M150.72,19.22c1.86,2,6,7.31,5,8.35l-.58.61c-1,1-6-3.36-7.83-5.32-2.79-2.95-5.54-7.79-4.75-8.63s5.36,2,8.14,5"/><path class="cls-5" d="M150.72,19.22c1.86,2,6,7.31,5,8.35l-.58.61c-1,1-6-3.36-7.83-5.32-2.79-2.95-5.54-7.79-4.75-8.63S147.94,16.26,150.72,19.22Z"/><path class="cls-4" d="M169.26,39.12c-1.83-1.94-6.77-6.26-7.73-5.25l-.57.61c-1,1,3.12,6.28,4.93,8.2,2.74,2.91,7.21,5.8,8,5S172,42,169.26,39.12"/><path class="cls-5" d="M169.26,39.12c-1.83-1.94-6.77-6.26-7.73-5.25l-.57.61c-1,1,3.12,6.28,4.93,8.2,2.74,2.91,7.21,5.8,8,5S172,42,169.26,39.12Z"/><path class="cls-4" d="M169.73,22.8c-1.83,1.95-6.77,6.27-7.73,5.25l-.57-.61c-1-1,3.12-6.27,4.93-8.2,2.74-2.91,7.21-5.8,8-5s-1.88,5.62-4.62,8.53"/><path class="cls-5" d="M169.73,22.8c-1.83,1.95-6.77,6.27-7.73,5.25l-.57-.61c-1-1,3.12-6.27,4.93-8.2,2.74-2.91,7.21-5.8,8-5S172.47,19.89,169.73,22.8Z"/><path class="cls-4" d="M147.14,38.64c1.84-2,6.78-6.27,7.73-5.25l.57.6c1,1-3.12,6.28-4.93,8.21-2.73,2.91-7.21,5.79-8,5s1.88-5.61,4.62-8.52"/><path class="cls-5" d="M147.14,38.64c1.84-2,6.78-6.27,7.73-5.25l.57.6c1,1-3.12,6.28-4.93,8.21-2.73,2.91-7.21,5.79-8,5S144.4,41.55,147.14,38.64Z"/><path class="cls-4" d="M166.32,18.91c-1,2.61-3.91,8.76-5.19,8.23l-.76-.32c-1.28-.54.51-7.19,1.46-9.76,1.44-3.9,4.51-8.51,5.55-8.08s.38,6-1.06,9.93"/><path class="cls-5" d="M166.32,18.91c-1,2.61-3.91,8.76-5.19,8.23l-.76-.32c-1.28-.54.51-7.19,1.46-9.76,1.44-3.9,4.51-8.51,5.55-8.08S167.76,15,166.32,18.91Z"/><path class="cls-4" d="M151.38,42.66c.94-2.57,3.85-8.62,5.11-8.1l.75.32c1.26.52-.5,7.08-1.44,9.61-1.42,3.83-4.44,8.38-5.46,7.95s-.38-5.95,1-9.78"/><path class="cls-5" d="M151.38,42.66c.94-2.57,3.85-8.62,5.11-8.1l.75.32c1.26.52-.5,7.08-1.44,9.61-1.42,3.83-4.44,8.38-5.46,7.95S150,46.49,151.38,42.66Z"/><path class="cls-4" d="M155.46,16.93c1,2.57,3,9.14,1.79,9.72l-.75.35c-1.26.59-4.42-5.47-5.46-8-1.57-3.83-2.47-9.41-1.44-9.88s4.29,4,5.86,7.81"/><path class="cls-5" d="M155.46,16.93c1,2.57,3,9.14,1.79,9.72l-.75.35c-1.26.59-4.42-5.47-5.46-8-1.57-3.83-2.47-9.41-1.44-9.88S153.89,13.1,155.46,16.93Z"/><path class="cls-4" d="M145.67,33.68c2.37-1.1,8.46-3.2,9-1.88l.32.79c.54,1.32-5.06,4.63-7.41,5.71-3.55,1.65-8.71,2.59-9.15,1.51s3.69-4.48,7.24-6.13"/><path class="cls-5" d="M145.67,33.68c2.37-1.1,8.46-3.2,9-1.88l.32.79c.54,1.32-5.06,4.63-7.41,5.71-3.55,1.65-8.71,2.59-9.15,1.51S142.12,35.33,145.67,33.68Z"/><path class="cls-4" d="M161.48,44.61c-1-2.53-3-9-1.77-9.57l.74-.34c1.24-.58,4.36,5.38,5.38,7.87,1.54,3.78,2.43,9.27,1.42,9.74s-4.22-3.93-5.77-7.7"/><path class="cls-5" d="M161.48,44.61c-1-2.53-3-9-1.77-9.57l.74-.34c1.24-.58,4.36,5.38,5.38,7.87,1.54,3.78,2.43,9.27,1.42,9.74S163,48.38,161.48,44.61Z"/><path class="cls-4" d="M169.45,38.36c-2.41-1-8.11-4.1-7.62-5.44l.3-.8c.49-1.34,6.66.54,9,1.53,3.6,1.51,7.88,4.72,7.47,5.81s-5.59.41-9.19-1.1"/><path class="cls-5" d="M169.45,38.36c-2.41-1-8.11-4.1-7.62-5.44l.3-.8c.49-1.34,6.66.54,9,1.53,3.6,1.51,7.88,4.72,7.47,5.81S173.05,39.87,169.45,38.36Z"/><path class="cls-4" d="M171.28,27.76c-2.38,1.1-8.46,3.19-9,1.88-.22-.56-.07-.18-.32-.79-.54-1.32,5.06-4.63,7.41-5.71,3.55-1.65,8.71-2.59,9.15-1.52s-3.69,4.49-7.24,6.14"/><path class="cls-5" d="M171.28,27.76c-2.38,1.1-8.46,3.19-9,1.88-.22-.56-.07-.18-.32-.79-.54-1.32,5.06-4.63,7.41-5.71,3.55-1.65,8.71-2.59,9.15-1.52S174.83,26.11,171.28,27.76Z"/><path class="cls-4" d="M146.81,23.11c2.45,1,8.23,4.16,7.73,5.52l-.3.81c-.5,1.36-6.76-.54-9.18-1.55-3.66-1.54-8-4.8-7.59-5.91s5.68-.41,9.34,1.13"/><path class="cls-5" d="M146.81,23.11c2.45,1,8.23,4.16,7.73,5.52l-.3.81c-.5,1.36-6.76-.54-9.18-1.55-3.66-1.54-8-4.8-7.59-5.91S143.15,21.57,146.81,23.11Z"/><path class="cls-6" d="M163.32,30.85a4.88,4.88,0,1,1-4.88-5.19,5,5,0,0,1,4.88,5.19"/><path class="cls-5" d="M163.32,30.85a4.88,4.88,0,1,1-4.88-5.19A5,5,0,0,1,163.32,30.85Z"/><text class="cls-7" transform="translate(161.7 66.23) scale(1 1.06)">Blossom</text><path class="cls-8" d="M172.52,57.82a3.42,3.42,0,0,1,.87,2.45,6.49,6.49,0,0,1-.23,2.07,3.44,3.44,0,0,1-.78,1.44,3.12,3.12,0,0,1-1.3.84,5.85,5.85,0,0,1-1.81.26,4.2,4.2,0,0,1-.47,0l-.57-.07a5.4,5.4,0,0,1-.58-.09,5.2,5.2,0,0,1-.52-.11l.94-7.5.29,0,.36,0,.48,0h.65A3.68,3.68,0,0,1,172.52,57.82Zm.59-8.94a3.19,3.19,0,0,1,.76,2.17,5,5,0,0,1-.28,2,3.31,3.31,0,0,1-2.13,2,4.91,4.91,0,0,1-1.54.24h-.83a7,7,0,0,1-.79,0l.88-7,.46-.07.5,0,.47,0H171A2.81,2.81,0,0,1,173.11,48.88Zm-8,17.35c.26,0,.54,0,.86,0l.95.08,1,.08c.32,0,.62,0,.91,0a16.78,16.78,0,0,0,3.65-.36A7.53,7.53,0,0,0,175.12,65a5.12,5.12,0,0,0,1.69-2.05,7.17,7.17,0,0,0,.58-3,3.78,3.78,0,0,0-.29-1.5,3.89,3.89,0,0,0-.84-1.24,4.07,4.07,0,0,0-1.33-.86,4.88,4.88,0,0,0-1.76-.33,6.53,6.53,0,0,0,3.27-1.86,4.67,4.67,0,0,0,1.05-3.35,5.37,5.37,0,0,0-.28-1.54,3.16,3.16,0,0,0-.89-1.34,4.6,4.6,0,0,0-1.72-.94,9.25,9.25,0,0,0-2.77-.35,20.24,20.24,0,0,0-2.12.1c-.66.06-1.33.1-2,.1h-3.79l-.15,1.39,1.71.32-2,16.08-1.71.38-.1,1.31Z"/><path class="cls-8" d="M179.7,65.56a1.72,1.72,0,0,0,.51.53,2.54,2.54,0,0,0,.73.3,4.24,4.24,0,0,0,.88.09,3.33,3.33,0,0,0,1.26-.23,4.47,4.47,0,0,0,1-.55,3.78,3.78,0,0,0,.68-.61,5.63,5.63,0,0,0,.36-.45l-.35-.88a4.4,4.4,0,0,1-.72.53,1,1,0,0,1-.43.12.34.34,0,0,1-.35-.26,1.74,1.74,0,0,1,0-.71l2.27-18-.6-.34-4.5.54-.24,1.06,1.56.55-2.09,16.5c0,.12,0,.28-.06.47a3.46,3.46,0,0,0,0,.52A1.78,1.78,0,0,0,179.7,65.56Z"/><path class="cls-8" d="M191,63.93a9.07,9.07,0,0,1-.52-3.24,16.71,16.71,0,0,1,.05-1.72,14,14,0,0,1,.22-1.74,10.87,10.87,0,0,1,.41-1.59,6.2,6.2,0,0,1,.61-1.32,3.15,3.15,0,0,1,.83-.9,1.77,1.77,0,0,1,1.05-.33,1.31,1.31,0,0,1,.76.22,1.69,1.69,0,0,1,.55.7,5.05,5.05,0,0,1,.36,1.26,13.36,13.36,0,0,1,.16,1.89c0,.56,0,1.14,0,1.75s-.11,1.19-.2,1.77a13.12,13.12,0,0,1-.39,1.64,6.06,6.06,0,0,1-.59,1.36,3.3,3.3,0,0,1-.8.92,1.74,1.74,0,0,1-1,.33A1.48,1.48,0,0,1,191,63.93ZM188,65a4.9,4.9,0,0,0,3.9,1.53,6.72,6.72,0,0,0,3.18-.75,7.59,7.59,0,0,0,2.4-2,9.46,9.46,0,0,0,1.51-3,11.48,11.48,0,0,0,.47-3.6A6.58,6.58,0,0,0,198,52.83a5,5,0,0,0-3.93-1.51,6.65,6.65,0,0,0-3.17.75,7.4,7.4,0,0,0-2.4,2,9,9,0,0,0-1.49,3,11.45,11.45,0,0,0-.46,3.59A6.85,6.85,0,0,0,188,65Z"/><path class="cls-8" d="M200.82,65.92a6.78,6.78,0,0,0,.92.28,8.76,8.76,0,0,0,1.13.21,9.41,9.41,0,0,0,1.17.07,7.66,7.66,0,0,0,2.1-.28,5.57,5.57,0,0,0,1.77-.84,4.12,4.12,0,0,0,1.22-1.43,4.17,4.17,0,0,0,.46-2,4.86,4.86,0,0,0-.2-1.44,4.15,4.15,0,0,0-.54-1.12,5.33,5.33,0,0,0-.79-.92c-.3-.27-.62-.55-1-.81s-.65-.53-.91-.76a5.38,5.38,0,0,1-.67-.7,2.37,2.37,0,0,1-.4-.7,2,2,0,0,1-.12-.77,1.3,1.3,0,0,1,.18-.7,1.36,1.36,0,0,1,.44-.48,2,2,0,0,1,.63-.28,3.06,3.06,0,0,1,.74-.09,2.91,2.91,0,0,1,.92.14,4.23,4.23,0,0,1,.74.34,2.91,2.91,0,0,1,.53.39c.15.14.25.25.33.33l.5-2.53a2.91,2.91,0,0,0-.48-.16l-.74-.15c-.29,0-.59-.09-.92-.12s-.66,0-1,0a7.2,7.2,0,0,0-2.19.31,5.33,5.33,0,0,0-1.71.89,3.9,3.9,0,0,0-1.11,1.38,3.83,3.83,0,0,0-.4,1.76,4.73,4.73,0,0,0,.22,1.5,5.12,5.12,0,0,0,.57,1.2,5.72,5.72,0,0,0,.76.92,7.22,7.22,0,0,0,.81.7c.33.24.63.47.89.7a5.68,5.68,0,0,1,.7.68,3.24,3.24,0,0,1,.45.71,1.89,1.89,0,0,1,.16.79,1.55,1.55,0,0,1-.19.8,1.5,1.5,0,0,1-.48.52,2,2,0,0,1-.65.27,2.71,2.71,0,0,1-.69.08,3.47,3.47,0,0,1-1-.14,5,5,0,0,1-.92-.35,6.24,6.24,0,0,1-1.27-.87l-.55,2.43A2.45,2.45,0,0,0,200.82,65.92Z"/><path class="cls-8" d="M211.35,65.92a6.78,6.78,0,0,0,.92.28,8.92,8.92,0,0,0,1.12.21,9.57,9.57,0,0,0,1.18.07,7.66,7.66,0,0,0,2.1-.28,5.57,5.57,0,0,0,1.77-.84,4.12,4.12,0,0,0,1.22-1.43,4.17,4.17,0,0,0,.46-2,4.86,4.86,0,0,0-.2-1.44,4.15,4.15,0,0,0-.54-1.12,5.33,5.33,0,0,0-.79-.92c-.31-.27-.62-.55-1-.81s-.65-.53-.92-.76a6,6,0,0,1-.66-.7,2.66,2.66,0,0,1-.41-.7,2.18,2.18,0,0,1-.12-.77,1.51,1.51,0,0,1,.18-.7,1.38,1.38,0,0,1,.45-.48,1.81,1.81,0,0,1,.63-.28,3,3,0,0,1,.74-.09,3,3,0,0,1,.92.14,3.81,3.81,0,0,1,.73.34,2.69,2.69,0,0,1,.54.39l.33.33.5-2.53a2.91,2.91,0,0,0-.48-.16l-.75-.15c-.28,0-.58-.09-.91-.12s-.66,0-1,0a7.2,7.2,0,0,0-2.19.31,5.13,5.13,0,0,0-1.71.89,4,4,0,0,0-1.12,1.38,4,4,0,0,0-.39,1.76,4.73,4.73,0,0,0,.22,1.5,5.12,5.12,0,0,0,.57,1.2,5.67,5.67,0,0,0,.75.92,8.29,8.29,0,0,0,.82.7c.32.24.62.47.89.7a5,5,0,0,1,.69.68,3,3,0,0,1,.46.71,2.06,2.06,0,0,1,.16.79,1.55,1.55,0,0,1-.19.8,1.5,1.5,0,0,1-.48.52,2.08,2.08,0,0,1-.65.27,2.82,2.82,0,0,1-.69.08,3.58,3.58,0,0,1-1-.14,4.91,4.91,0,0,1-.91-.35,5.31,5.31,0,0,1-.75-.45c-.21-.15-.39-.3-.53-.42l-.54,2.43A2.09,2.09,0,0,0,211.35,65.92Z"/><path class="cls-8" d="M226.31,63.93a9.12,9.12,0,0,1-.51-3.24,16.65,16.65,0,0,1,0-1.72,16.21,16.21,0,0,1,.22-1.74,12.31,12.31,0,0,1,.41-1.59,5.76,5.76,0,0,1,.62-1.32,3,3,0,0,1,.83-.9,1.76,1.76,0,0,1,1-.33,1.31,1.31,0,0,1,.76.22,1.61,1.61,0,0,1,.55.7,4.32,4.32,0,0,1,.36,1.26,12,12,0,0,1,.16,1.89c0,.56,0,1.14,0,1.75a16.8,16.8,0,0,1-.2,1.77,13.13,13.13,0,0,1-.38,1.64,6.55,6.55,0,0,1-.59,1.36,3.33,3.33,0,0,1-.81.92,1.71,1.71,0,0,1-1,.33A1.49,1.49,0,0,1,226.31,63.93Zm-3,1.11a4.89,4.89,0,0,0,3.89,1.53,6.72,6.72,0,0,0,3.18-.75,7.52,7.52,0,0,0,2.41-2,9.44,9.44,0,0,0,1.5-3,11.2,11.2,0,0,0,.47-3.6,6.53,6.53,0,0,0-1.43-4.36,5,5,0,0,0-3.92-1.51,6.63,6.63,0,0,0-3.17.75,7.34,7.34,0,0,0-2.41,2,9.21,9.21,0,0,0-1.49,3,11.45,11.45,0,0,0-.45,3.59A6.8,6.8,0,0,0,223.3,65Z"/><path class="cls-8" d="M248.21,66.23l.73-6.46c.07-.52.13-1.06.19-1.63s.09-1.14.12-1.67a6.7,6.7,0,0,1,.71-1.1,5.34,5.34,0,0,1,.79-.84,3.32,3.32,0,0,1,.81-.55,1.8,1.8,0,0,1,.77-.2,1.18,1.18,0,0,1,.43.07.72.72,0,0,1,.31.27,2,2,0,0,1,.2.57,4.65,4.65,0,0,1,.07.92c0,.37,0,.78,0,1.21s-.09.86-.14,1.3S253,59,253,59.39s-.13.79-.18,1.14-.12.74-.19,1.11-.12.73-.17,1.07-.1.66-.13.95a5.86,5.86,0,0,0-.06.76,3.84,3.84,0,0,0,.08.76,1.46,1.46,0,0,0,.32.66,1.67,1.67,0,0,0,.68.48,3.08,3.08,0,0,0,1.15.18,3.54,3.54,0,0,0,1.35-.24,4.75,4.75,0,0,0,1-.55,4.56,4.56,0,0,0,.71-.62,4.24,4.24,0,0,0,.36-.45l-.35-.88a4,4,0,0,1-.69.52.85.85,0,0,1-.44.13.36.36,0,0,1-.29-.15,1,1,0,0,1-.13-.62c0-.25,0-.54.06-.85s.07-.65.12-1,.1-.68.16-1,.12-.69.17-1,.12-.76.18-1.2.14-.87.2-1.3.11-.82.15-1.19a8.25,8.25,0,0,0,.06-.87,6.2,6.2,0,0,0-.23-1.8,3.09,3.09,0,0,0-.65-1.19,2.36,2.36,0,0,0-1-.67,3.75,3.75,0,0,0-1.24-.2,4.59,4.59,0,0,0-1.43.22,5.32,5.32,0,0,0-1.29.63,6.58,6.58,0,0,0-1.13,1,7.68,7.68,0,0,0-.92,1.29,5.14,5.14,0,0,0-.34-1.47,2.93,2.93,0,0,0-.67-1,2.48,2.48,0,0,0-1-.53,3.94,3.94,0,0,0-1.17-.16,3.67,3.67,0,0,0-1.32.23,4.69,4.69,0,0,0-1.19.63,6.81,6.81,0,0,0-1.07.95,8.75,8.75,0,0,0-.9,1.18l.21-2.68-.63-.31-4.14.66-.2,1.14,1.27.77-1.57,12.31h3.55l1.24-9.6a8.51,8.51,0,0,1,.71-1.12,7.27,7.27,0,0,1,.81-.91,4.23,4.23,0,0,1,.82-.61,1.58,1.58,0,0,1,.75-.22,2,2,0,0,1,.51.06.7.7,0,0,1,.36.26,1.55,1.55,0,0,1,.21.57,6,6,0,0,1,.09,1c0,.37,0,.77,0,1.2s0,.85-.09,1.29-.09.85-.14,1.26-.09.8-.14,1.16l-.67,5.67Z"/><text class="cls-9" transform="translate(112.73 94.11) scale(1 1.06)">Florist</text><polygon class="cls-8" points="121.54 94.11 121.64 92.82 118.33 92.44 119.22 85.11 124.88 85.54 125.2 82.84 119.45 83.14 120.33 76.16 124.93 76.46 125.28 79.34 127.67 79.34 128.11 74.64 114.92 74.64 114.76 76.02 116.47 76.34 114.5 92.44 112.82 92.82 112.69 94.11 121.54 94.11"/><path class="cls-8" d="M128.68,93.44a1.59,1.59,0,0,0,.5.53,2.13,2.13,0,0,0,.74.3,3.6,3.6,0,0,0,.88.1,3.13,3.13,0,0,0,1.25-.24,4.54,4.54,0,0,0,1-.54,4.68,4.68,0,0,0,.68-.61c.17-.21.3-.36.36-.45l-.35-.89a4.64,4.64,0,0,1-.72.54,1,1,0,0,1-.43.12.35.35,0,0,1-.36-.27,1.59,1.59,0,0,1,0-.71l2.26-18-.6-.35-4.5.54-.24,1.06,1.56.55-2.09,16.51c0,.12,0,.27-.06.47s0,.37,0,.51A1.63,1.63,0,0,0,128.68,93.44Z"/><path class="cls-8" d="M140,91.82a9.14,9.14,0,0,1-.51-3.25,16.78,16.78,0,0,1,0-1.72c.05-.59.12-1.17.22-1.73a14.18,14.18,0,0,1,.41-1.59,6.21,6.21,0,0,1,.62-1.32,3.15,3.15,0,0,1,.83-.9,1.77,1.77,0,0,1,1-.34,1.36,1.36,0,0,1,.76.22,1.74,1.74,0,0,1,.56.71,5.05,5.05,0,0,1,.36,1.26,12,12,0,0,1,.15,1.88c0,.57,0,1.15,0,1.76a14.74,14.74,0,0,1-.2,1.77,11.43,11.43,0,0,1-.38,1.63,6.33,6.33,0,0,1-.59,1.36,2.93,2.93,0,0,1-.81.92,1.66,1.66,0,0,1-1,.34A1.49,1.49,0,0,1,140,91.82Zm-3,1.1a4.87,4.87,0,0,0,3.9,1.54A6.54,6.54,0,0,0,144,93.7a7.28,7.28,0,0,0,2.41-2,9.08,9.08,0,0,0,1.5-3,11.27,11.27,0,0,0,.47-3.6A6.6,6.6,0,0,0,147,80.71a5,5,0,0,0-3.93-1.5,6.65,6.65,0,0,0-3.17.75,7.2,7.2,0,0,0-2.4,2,9,9,0,0,0-1.5,3,11.71,11.71,0,0,0-.45,3.59A6.75,6.75,0,0,0,137,92.92Z"/><path class="cls-8" d="M153.81,94.11l1.24-9.78a2.07,2.07,0,0,1,.5-.52,3.3,3.3,0,0,1,.65-.33,4.1,4.1,0,0,1,.73-.18,5,5,0,0,1,.76-.06,2.42,2.42,0,0,1,.9.14,1.18,1.18,0,0,1,.43.24l.76-4.14a1.09,1.09,0,0,0-.31-.16,1.29,1.29,0,0,0-.51-.09,3.16,3.16,0,0,0-1.4.32,4.47,4.47,0,0,0-1.17.84,5.46,5.46,0,0,0-.89,1.18,7.1,7.1,0,0,0-.57,1.34l.18-3.27-.62-.41-3.74.67-.2,1.14,1.25.75-1.54,12.32Z"/><path class="cls-8" d="M165.61,76.66a2,2,0,0,0,.72-.53,2.29,2.29,0,0,0,.44-.78,3.19,3.19,0,0,0,.16-.94,2.23,2.23,0,0,0-.13-.72,2,2,0,0,0-.38-.61,1.92,1.92,0,0,0-.61-.43,2.09,2.09,0,0,0-.81-.16,2,2,0,0,0-.9.19,2.08,2.08,0,0,0-.7.5,2.34,2.34,0,0,0-.46.76,2.55,2.55,0,0,0-.17.92,1.7,1.7,0,0,0,.13.74,1.88,1.88,0,0,0,.4.63,1.82,1.82,0,0,0,.58.45,1.53,1.53,0,0,0,.71.18A2.47,2.47,0,0,0,165.61,76.66Zm-4.36,17.21a2.57,2.57,0,0,0,1.73.5,3.54,3.54,0,0,0,1.33-.24,4.89,4.89,0,0,0,1-.54A4,4,0,0,0,166,93l.38-.44-.35-.89a5.1,5.1,0,0,1-.69.52.94.94,0,0,1-.45.14c-.35,0-.49-.33-.4-1l1.58-11.79-.65-.31-4.55.67L160.7,81l1.48.78c-.32,2.48-.59,4.62-.83,6.45s-.43,3.24-.56,4.27A1.45,1.45,0,0,0,161.25,93.87Z"/><path class="cls-8" d="M168,93.81a8.59,8.59,0,0,0,.92.28,11.26,11.26,0,0,0,1.12.2,9.61,9.61,0,0,0,1.18.08,7.66,7.66,0,0,0,2.1-.28,5.38,5.38,0,0,0,1.77-.85,4.09,4.09,0,0,0,1.22-1.42,4.21,4.21,0,0,0,.46-2,4.8,4.8,0,0,0-.2-1.43,4.21,4.21,0,0,0-.54-1.13,5.27,5.27,0,0,0-.8-.91c-.3-.28-.61-.55-.95-.81s-.65-.53-.92-.77a5.26,5.26,0,0,1-.66-.69,2.71,2.71,0,0,1-.41-.71,1.9,1.9,0,0,1-.12-.76,1.55,1.55,0,0,1,.18-.71,1.58,1.58,0,0,1,.45-.48,2,2,0,0,1,.63-.27,3,3,0,0,1,.74-.09,3,3,0,0,1,.92.14,3.28,3.28,0,0,1,.73.33,2.7,2.7,0,0,1,.54.4,4.48,4.48,0,0,1,.32.33l.51-2.53a2.4,2.4,0,0,0-.48-.16,6.2,6.2,0,0,0-.75-.15c-.28-.05-.58-.09-.91-.12s-.66,0-1,0a7.19,7.19,0,0,0-2.19.32,5,5,0,0,0-1.71.89A4.1,4.1,0,0,0,169,81.81a4,4,0,0,0-.39,1.76,4.64,4.64,0,0,0,.22,1.5,5.12,5.12,0,0,0,.57,1.2,5.35,5.35,0,0,0,.75.93,8.29,8.29,0,0,0,.82.7c.32.24.62.47.89.69a5.61,5.61,0,0,1,.69.69A2.49,2.49,0,0,1,173,90a1.85,1.85,0,0,1,.17.78,1.51,1.51,0,0,1-.19.8,1.42,1.42,0,0,1-.48.52,2.1,2.1,0,0,1-.65.28,3.4,3.4,0,0,1-.69.08,4,4,0,0,1-1-.14,4.91,4.91,0,0,1-.91-.35,5.31,5.31,0,0,1-.75-.45c-.21-.16-.39-.3-.53-.43l-.54,2.43A2.06,2.06,0,0,0,168,93.81Z"/><path class="cls-8" d="M179.38,93.17a1.83,1.83,0,0,0,1.24,1.09,3.43,3.43,0,0,0,.86.11,6,6,0,0,0,1.62-.21,7.48,7.48,0,0,0,1.34-.52,5.21,5.21,0,0,0,1-.67,5.42,5.42,0,0,0,.68-.67l-.29-1a2.8,2.8,0,0,1-1,.6,3.25,3.25,0,0,1-1.06.21.85.85,0,0,1-.7-.25,1.34,1.34,0,0,1-.2-.81c0-.23,0-.5,0-.8s.08-.66.14-1.1l1-7.79h2.62l.26-2h-2.63l.4-3.34h-2c-.12.31-.25.64-.39,1s-.3.65-.46,1a8.11,8.11,0,0,1-.5.84,3.08,3.08,0,0,1-.5.63l-1.48.6L179,81.33h1.43l-1,8c-.08.57-.13,1-.17,1.36s-.06.61-.08.8,0,.33,0,.41v.19A2.7,2.7,0,0,0,179.38,93.17Z"/><path class="cls-3" d="M257.6,71.05H42.9a.79.79,0,0,1-.79-.8v-.92a.79.79,0,0,1,.79-.79H257.6a.79.79,0,0,1,.79.79v.92a.8.8,0,0,1-.79.8"/><rect class="cls-10" x="42.11" y="68.54" width="216.28" height="2.51" rx="0.79"/><text class="cls-7" transform="translate(41.19 66) scale(1 1.06)">Cherry </text><path class="cls-8" d="M42.38,61a7.61,7.61,0,0,0,1.24,2.65,6.22,6.22,0,0,0,2.21,1.84,7.26,7.26,0,0,0,3.31.69A12.34,12.34,0,0,0,51.37,66a10,10,0,0,0,1.69-.45A7.36,7.36,0,0,0,54.28,65c.33-.21.62-.4.84-.57l.51-3.77H53.42a6.81,6.81,0,0,1-.18.66c-.07.25-.15.5-.23.74s-.17.47-.26.68a1.9,1.9,0,0,1-.94,1,3.69,3.69,0,0,1-.76.31,3.82,3.82,0,0,1-.71.13l-.6,0a2.64,2.64,0,0,1-1.56-.46,3.59,3.59,0,0,1-1.07-1.33,7.89,7.89,0,0,1-.64-2.1,18.46,18.46,0,0,1-.25-2.76,16.08,16.08,0,0,1,.09-2.17,16.34,16.34,0,0,1,.39-2.2,12.39,12.39,0,0,1,.71-2,7.33,7.33,0,0,1,1.06-1.7,4.62,4.62,0,0,1,1.42-1.16,3.71,3.71,0,0,1,1.8-.43,3.21,3.21,0,0,1,.78.09,4.52,4.52,0,0,1,.68.23L53.58,52h2.68L57,47l-.41-.13c-.22,0-.44-.11-.68-.19a6.63,6.63,0,0,0-.84-.19c-.33-.06-.71-.12-1.16-.16s-1-.06-1.63-.06a10.7,10.7,0,0,0-4.18.79,9.07,9.07,0,0,0-3.26,2.28A10.46,10.46,0,0,0,42.73,53,14.78,14.78,0,0,0,42,57.88,12.45,12.45,0,0,0,42.38,61Z"/><path class="cls-8" d="M65.56,65a1.37,1.37,0,0,0,.32.65,1.73,1.73,0,0,0,.69.45,3.28,3.28,0,0,0,1.15.17A3.61,3.61,0,0,0,69.07,66a5.61,5.61,0,0,0,1-.54,4.54,4.54,0,0,0,.71-.61,4.44,4.44,0,0,0,.36-.44l-.35-.87a4,4,0,0,1-.69.49.94.94,0,0,1-.44.12.36.36,0,0,1-.29-.15,1,1,0,0,1-.13-.61c0-.26,0-.55.07-.86s.08-.64.12-1,.11-.68.17-1,.11-.69.16-1,.13-.76.2-1.19.13-.87.19-1.29.11-.83.15-1.19A8.59,8.59,0,0,0,70.4,55a6.3,6.3,0,0,0-.23-1.82A3.08,3.08,0,0,0,69.53,52a2.22,2.22,0,0,0-1-.66,3.81,3.81,0,0,0-1.25-.2,4.06,4.06,0,0,0-1.39.24,5,5,0,0,0-1.26.65,6.13,6.13,0,0,0-1.11,1,9.22,9.22,0,0,0-.93,1.27l1.07-9L63,44.89l-4.54.54-.19,1.06,1.5.55L57.61,66h3.63l1.09-9.25a9.54,9.54,0,0,1,.72-1.24,6.68,6.68,0,0,1,.83-1,4.38,4.38,0,0,1,.87-.69,1.57,1.57,0,0,1,.83-.26,1,1,0,0,1,.43.08.64.64,0,0,1,.32.27,1.56,1.56,0,0,1,.21.56,5.41,5.41,0,0,1,.08.92c0,.37,0,.78-.05,1.21s-.08.88-.14,1.32-.12.86-.19,1.28-.13.8-.2,1.15-.11.73-.18,1.1-.12.72-.18,1.07-.1.65-.13,1a5.6,5.6,0,0,0-.06.75A3.51,3.51,0,0,0,65.56,65Z"/><path class="cls-8" d="M76.93,57.42c.06-.44.14-.87.24-1.31a12.14,12.14,0,0,1,.39-1.25,5.72,5.72,0,0,1,.53-1,2.71,2.71,0,0,1,.71-.72,1.53,1.53,0,0,1,.89-.27c.7,0,1.07.61,1.11,1.82a3.31,3.31,0,0,1-.39,1.68,4.13,4.13,0,0,1-1,1.24,4.5,4.5,0,0,1-1.31.78,4.28,4.28,0,0,1-1.28.32C76.83,58.27,76.87,57.86,76.93,57.42Zm-3.79,5.22A5.44,5.44,0,0,0,74,64.52a4.73,4.73,0,0,0,1.6,1.32,5.19,5.19,0,0,0,2.4.51A6.35,6.35,0,0,0,80,66a7.65,7.65,0,0,0,1.6-.76,6.86,6.86,0,0,0,1.17-1,6.74,6.74,0,0,0,.73-.93l-.73-1.27a8.78,8.78,0,0,1-.66.74,5.92,5.92,0,0,1-.82.66,4.39,4.39,0,0,1-1,.47,3.57,3.57,0,0,1-1.21.19,1.85,1.85,0,0,1-1-.28,2.24,2.24,0,0,1-.74-.81,4.24,4.24,0,0,1-.42-1.26,7.78,7.78,0,0,1-.13-1.65A11.68,11.68,0,0,0,78.35,60,9.57,9.57,0,0,0,80,59.55a9.08,9.08,0,0,0,1.64-.77,6.06,6.06,0,0,0,1.39-1.11,5,5,0,0,0,1-1.48,4.65,4.65,0,0,0,.33-1.87,4,4,0,0,0-.25-1.27,2.86,2.86,0,0,0-.7-1,3.33,3.33,0,0,0-1.18-.68,5.14,5.14,0,0,0-1.71-.25,6.5,6.5,0,0,0-3,.72,7.68,7.68,0,0,0-2.43,2,9.68,9.68,0,0,0-1.61,3,11.25,11.25,0,0,0-.59,3.72A8.6,8.6,0,0,0,73.14,62.64Z"/><path class="cls-8" d="M89.69,66l1.24-9.79a1.87,1.87,0,0,1,.5-.51,2.43,2.43,0,0,1,.64-.33,3.56,3.56,0,0,1,.73-.19,6.61,6.61,0,0,1,.76,0,2.23,2.23,0,0,1,.9.14,1.36,1.36,0,0,1,.44.24l.76-4.15a1.55,1.55,0,0,0-.32-.16,1.5,1.5,0,0,0-.5-.08,3.17,3.17,0,0,0-1.41.32,4.34,4.34,0,0,0-1.17.84,5.19,5.19,0,0,0-.88,1.18,6.13,6.13,0,0,0-.57,1.33L91,51.53l-.63-.41-3.74.67-.19,1.13,1.25.76L86.14,66Z"/><path class="cls-8" d="M99.89,66l1.24-9.79a2,2,0,0,1,.5-.51,2.59,2.59,0,0,1,.64-.33,3.65,3.65,0,0,1,.74-.19,6.44,6.44,0,0,1,.75,0,2.32,2.32,0,0,1,.91.14,1.28,1.28,0,0,1,.43.24l.76-4.15a1.72,1.72,0,0,0-.31-.16,1.6,1.6,0,0,0-.51-.08,3.2,3.2,0,0,0-1.41.32,4.15,4.15,0,0,0-1.16.84,5.22,5.22,0,0,0-.89,1.18,7.3,7.3,0,0,0-.57,1.33l.18-3.26-.63-.41-3.74.67-.19,1.13,1.25.76L96.34,66Z"/><path class="cls-8" d="M111.66,66.86a14,14,0,0,1-1,1.6,6.5,6.5,0,0,1-1,1.06,3.33,3.33,0,0,1-1,.59,2.91,2.91,0,0,1-1,.19,3.85,3.85,0,0,1-.66-.06l-.63-.16a4.46,4.46,0,0,1-.53-.22,2,2,0,0,1-.37-.25l-.85,2.45a1.44,1.44,0,0,0,.39.18c.18.06.39.12.61.17l.71.13a5.91,5.91,0,0,0,.7,0,5.78,5.78,0,0,0,1.37-.17,4.69,4.69,0,0,0,1.32-.55,5.8,5.8,0,0,0,1.23-1A8.58,8.58,0,0,0,112,69.25c.26-.41.58-.94,1-1.58s.78-1.34,1.2-2.09.82-1.51,1.23-2.29.76-1.52,1.06-2.22.56-1.22.82-1.81.47-1.17.66-1.75a12.43,12.43,0,0,0,.46-1.82,11.29,11.29,0,0,0,.17-2,3.49,3.49,0,0,0-.13-1,2.52,2.52,0,0,0-.38-.83,1.91,1.91,0,0,0-.65-.58,1.72,1.72,0,0,0-.9-.22,1.57,1.57,0,0,0-1.73,1.68,3,3,0,0,0,.1.86c.06.24.13.46.2.68s.14.46.21.72a4.13,4.13,0,0,1,.09.95,9.68,9.68,0,0,1-.16,1.76,18,18,0,0,1-.43,1.8c-.18.61-.4,1.23-.64,1.85s-.49,1.25-.77,1.88l-1,2.19L112,62.78c-.09-.66-.2-1.42-.33-2.29s-.25-1.75-.37-2.66-.25-1.8-.37-2.67-.24-1.63-.33-2.29a2.24,2.24,0,0,0-.61-1.29,2.18,2.18,0,0,0-1.54-.46,3,3,0,0,0-1.09.19,4.72,4.72,0,0,0-.9.45,4.33,4.33,0,0,0-.67.51,2.82,2.82,0,0,0-.36.37l.35,1a1.1,1.1,0,0,1,.38-.22,1.18,1.18,0,0,1,.31,0,.33.33,0,0,1,.3.16,1.35,1.35,0,0,1,.2.56l2.51,12.82Z"/></svg>