<svg width="241" height="169" xmlns="http://www.w3.org/2000/svg" xmlns:xlink="http://www.w3.org/1999/xlink"><svg width="240.64" height="52.47" viewBox="-1 -1 240.64 52.47" xmlns="http://www.w3.org/2000/svg"><g fill="#fff" fill-rule="evenodd"><path d="M100.771 11.477a3.241 3.241 0 0 0 3.244-3.209 3.231 3.231 0 0 0-3.244-3.162 3.186 3.186 0 1 0 0 6.37"/><path d="M220.268 24.888c0-2.778 1.72-5.795 5.011-5.795.686 0 2.85.143 2.85 2.394 0 .479-.1 3.737-5.551 3.737-1.769 0-2.311-.241-2.311-.336zm18.273 6.227c-.39-.67-2.061-2.778-2.061-2.778a9.1 9.1 0 0 1-8.45 5.029c-7.174 0-7.32-4.024-7.32-4.263a.179.179 0 0 1 .1-.048 15.374 15.374 0 0 0 2.307.192c10.121 0 10.318-6.946 10.318-7.616v-.048c0-6.706-6.681-6.8-7.368-6.8h-.049c-6.829 0-11.251 4.79-11.251 11.591a18.132 18.132 0 0 0 .175 2.73c-.914 2.442-2.535 3.018-3.711 3.018-2.013 0-2.408-1.82-2.408-2.874V2.376h-7.318v4.311h2.063v24.672a5.851 5.851 0 0 0 6.19 5.892 7.779 7.779 0 0 0 6.891-3.738c1.627 2.244 4.654 4.073 10.3 4.073 7.861 0 11.692-4.742 11.692-6.179a.463.463 0 0 0-.1-.288zm-48.532 1.868a7.474 7.474 0 0 1-2.357-.432V19.62a18.926 18.926 0 0 1 2.75-.336c1.033 0 6.387.239 6.387 6.466 0 7.041-5.551 7.233-6.78 7.233zm-18.863-5.748a5.224 5.224 0 0 1-5.207 5.269c-4.078 0-4.127-4.216-4.127-5.461 0-6.131 4.471-7.9 6.877-7.9a7.182 7.182 0 0 1 2.456.287v7.807zm-46.942-.1a5.2 5.2 0 0 1-5.06 5.317c-4.078 0-4.175-4.263-4.175-5.46 0-6.084 4.225-7.855 6.779-7.855a7.174 7.174 0 0 1 2.456.287v7.715zm66.592-12.262a14.027 14.027 0 0 0-3.144.527V2.376h-7.274v4.311h2.064v22.537c-.919 2.387-2.522 2.992-3.685 2.992-2.014 0-2.407-1.868-2.407-2.874v-13.65a29.346 29.346 0 0 0-6.632-.91c-10.119 0-13.41 6.849-13.41 12.98a14.53 14.53 0 0 0 .219 2.44 3.651 3.651 0 0 1-3.2 1.967 2.429 2.429 0 0 1-2.456-2.73v-7.76c0-4.5-3.193-6.514-7.024-6.514a7.952 7.952 0 0 0-6.19 2.443c-.1.144-.148.191-.2.191s-.05-.1-.05-.143v-2.012h-7.32v.007a8.212 8.212 0 0 1-1.5-.125v.006a29.052 29.052 0 0 0-5.821-.7c-10.021 0-13.264 6.513-13.264 13.028a11.884 11.884 0 0 0 .109 1.45c-.957 2.313-2.494 2.86-3.645 2.86-2.064 0-2.408-1.82-2.408-2.874V15.644h-7.355v4.315h2.114v8.95c-.9 2.61-2.576 3.216-3.783 3.216-2.015 0-2.408-1.82-2.408-2.874V2.376h-7.319v4.311h2.063v24.672a5.851 5.851 0 0 0 6.189 5.892 7.884 7.884 0 0 0 6.136-2.692 5.941 5.941 0 0 0 5.261 2.732 7.869 7.869 0 0 0 6.714-3.379 7.111 7.111 0 0 0 6.451 3.427 8.149 8.149 0 0 0 6.239-2.347s.148-.191.246-.191c.05 0 .1.048.1.239v2.491c0 2.778-.493 8.574-7.321 8.574-.393 0-1.079-.048-1.079-.048v-3.591h-4.522v7.52a15.208 15.208 0 0 0 4.273.479c13.754 0 13.754-11.112 13.754-14.082V19.959h3.145v16.76h5.256V25.51c0-2.969 1.67-5.556 4.716-5.556a3.1 3.1 0 0 1 3.242 3.161v8.287a5.808 5.808 0 0 0 6.14 5.891 7.924 7.924 0 0 0 6.328-2.882 7.421 7.421 0 0 0 6.572 3.217 8.159 8.159 0 0 0 7.122-3.688c.05-.049.1-.144.148-.144s.05.048.1.191c.64 1.963 2.555 3.3 5.208 3.3a8.017 8.017 0 0 0 5.159-1.743v.546s2.015 1.341 7.368 1.341c11.642 0 12.427-9.435 12.427-11.5 0-10.825-9.677-11.065-11.445-11.065zM72.99 22.876L67.831 9.321c-.048-.143-.1-.239-.146-.239s-.1.1-.148.239l-5.01 13.555zM50.542 36.719l11.984-29.6h-2.653V2.376h11.3l12.035 29.6h2.651v4.743H78.2l-3.439-9.053h-14l-3.441 9.053zM37.806 12.786A19.432 19.432 0 0 0 19.433.002a19.962 19.962 0 0 0-4.053.415 19.6 19.6 0 0 0-2.322.637c.1.295.2.589.295.883.478 1.432.975 2.925 1.5 4.414.305.872.621 1.738.943 2.591a41.321 41.321 0 0 0 3.317 7.123 11.544 11.544 0 0 0 1.634 2.083 3.767 3.767 0 0 0 2.553 1.271c1.309 0 2.525-.984 3.662-2.567a64.475 64.475 0 0 1 2.828 6.714 9.821 9.821 0 0 1-6.487 2.444 9.624 9.624 0 0 1-5.117-1.454 11.827 11.827 0 0 1-2.018-1.536 23.447 23.447 0 0 1-4.587-6.763q-.685-1.417-1.312-2.947c-1.164-2.833-2.2-5.9-3.219-8.953a19.308 19.308 0 0 0-1.936 1.8 18.547 18.547 0 0 0-1.14 24.26 19.146 19.146 0 0 0 1.84 2.035c.7-1.936 1.362-3.925 1.987-5.8.833-2.508 1.676-5.029 2.588-7.433a21.313 21.313 0 0 0 4.916 6.27c-.37 1.08-.726 2.154-1.073 3.194-.852 2.565-1.712 5.148-2.645 7.6a19.679 19.679 0 0 0 2.263.82 19.865 19.865 0 0 0 5.584.8 19.623 19.623 0 0 0 13.459-5.3 19.218 19.218 0 0 0 1.859-2.01c-.216-.64-.429-1.282-.643-1.924-.475-1.428-.972-2.92-1.494-4.4q-.461-1.311-.942-2.593a41.178 41.178 0 0 0-3.315-7.123 11.3 11.3 0 0 0-1.634-2.084 6.236 6.236 0 0 0-.616-.534 3.226 3.226 0 0 0-1.94-.737c-1.308 0-2.528.982-3.664 2.567a64.528 64.528 0 0 1-2.83-6.714q.341-.286.7-.543a9.647 9.647 0 0 1 5.8-1.9h.006a9.614 9.614 0 0 1 5.1 1.446A11.825 11.825 0 0 1 31.3 7.59a23.436 23.436 0 0 1 4.585 6.765q.685 1.418 1.315 2.947a91.49 91.49 0 0 1 1.518 3.993 18.241 18.241 0 0 0-.907-8.512"/></g></svg><svg viewBox="-1 -1 47 47" width="47" height="47" x="66" y="102.47" xmlns="http://www.w3.org/2000/svg"><path d="M40.2 36c-.3-.7-.5-1.5-.7-2.2-.5-1.7-1.1-3.4-1.7-5.1-.4-1-.7-2-1.1-3-1-2.9-2.3-5.6-3.8-8.2-.5-.9-1.2-1.7-1.9-2.4-.2-.2-.5-.4-.7-.6-.6-.5-1.4-.8-2.2-.9-1.5 0-2.9 1.1-4.2 3-1.2-2.5-2.3-5.1-3.3-7.8.3-.2.5-.4.8-.6C23.3 6.8 25.7 6 28.1 6c2.1 0 4.1.6 5.9 1.7.8.5 1.6 1.1 2.3 1.8 2.2 2.3 4 4.9 5.3 7.8.5 1.1 1 2.2 1.5 3.4.6 1.5 1.2 3 1.8 4.6.4-3.3.1-6.7-1-9.9C40.5 6.4 32 .5 22.5.6c-1.6 0-3.1.2-4.7.5-.9.2-1.8.4-2.7.7.1.3.2.7.3 1 .6 1.7 1.1 3.4 1.7 5.1.4 1 .7 2 1.1 3 1 2.9 2.3 5.6 3.8 8.2.5.9 1.2 1.7 1.9 2.4.8.9 1.8 1.4 3 1.5 1.5 0 2.9-1.1 4.2-3 1.2 2.5 2.3 5.1 3.3 7.8-2.1 1.8-4.7 2.8-7.5 2.8-2.1 0-4.1-.6-5.9-1.7-.8-.5-1.6-1.1-2.3-1.8-2.2-2.3-4-4.9-5.3-7.8-.5-1.1-1-2.2-1.5-3.4-1.3-3.3-2.5-6.8-3.7-10.4-.8.7-1.6 1.4-2.3 2.2-7.3 7.7-7.9 19.7-1.3 28.1l2.1 2.4c.8-2.2 1.6-4.5 2.3-6.7 1-2.9 1.9-5.8 3-8.6 1.4 2.8 3.4 5.2 5.7 7.3-.4 1.3-.8 2.5-1.2 3.7-1 3-2 6-3.1 8.8.9.4 1.7.7 2.6.9 2.1.6 4.3.9 6.5.9 5.8 0 11.4-2.2 15.6-6.1.7-.8 1.5-1.6 2.1-2.4z" fill-rule="evenodd" clip-rule="evenodd" fill="#fff"/></svg><svg width="47.05" height="30.03" viewBox="-1 -1 47.05 30.03" x="135.75" y="52.47" xmlns="http://www.w3.org/2000/svg"><path data-name="Path 446" d="M21.901 15.459a7.622 7.622 0 0 1 1.079 4.175 8.115 8.115 0 0 1-1.237 4.43 7.8 7.8 0 0 1-2.01 2.217 7.487 7.487 0 0 1-3.169 1.391 20.353 20.353 0 0 1-3.942.359H0V0h13.5q5.152.1 7.266 2.989a7.068 7.068 0 0 1 1.288 4.3 6.2 6.2 0 0 1-1.288 4.1 6.664 6.664 0 0 1-2.113 1.6 6.143 6.143 0 0 1 3.248 2.47zm-15.459-4.43h5.926a5.674 5.674 0 0 0 2.989-.7 2.639 2.639 0 0 0 1.134-2.448 2.5 2.5 0 0 0-1.494-2.577 10.363 10.363 0 0 0-3.35-.464h-5.2v6.184zm10.615 8.141a3 3 0 0 0-1.8-2.988 6.675 6.675 0 0 0-2.783-.464H6.445v7.472h5.926a6.24 6.24 0 0 0 2.834-.514 3.552 3.552 0 0 0 1.852-3.506zm27.827-4.535a25.216 25.216 0 0 1 .155 3.968H30.455q.1 3.04 2.061 4.224a5.269 5.269 0 0 0 2.937.774 4.411 4.411 0 0 0 2.886-.928 3.859 3.859 0 0 0 1.082-1.391h5.359a6.543 6.543 0 0 1-1.958 3.659q-2.68 2.937-7.575 2.936a10.885 10.885 0 0 1-7.034-2.474q-3.067-2.472-3.066-8.038 0-5.258 2.757-8.039a9.672 9.672 0 0 1 7.189-2.783 11.493 11.493 0 0 1 4.715.928 8.173 8.173 0 0 1 3.478 2.989 9.92 9.92 0 0 1 1.594 4.175zM40.71 3.968H29.373V1.134H40.71zM39.628 15.15a4.426 4.426 0 0 0-1.417-3.194 4.619 4.619 0 0 0-3.118-1.082 4.111 4.111 0 0 0-3.113 1.159 5.658 5.658 0 0 0-1.417 3.118z" fill="#fff"/></svg><svg data-name="Layer 1" width="23.23" height="44.01" viewBox="-1 -1 23.23 44.01" x="113" y="102.47" xmlns="http://www.w3.org/2000/svg"><path d="M21.23.31V7H17.4a3.55 3.55 0 0 0-2.85.91 4.26 4.26 0 0 0-.74 2.72v4.77H21l-1 7.47h-6.19V42H6.27V22.85H0v-7.47h6.27V9.85q0-4.69 2.55-7.28A9 9 0 0 1 15.63 0a39.57 39.57 0 0 1 5.6.31z" fill="#fff"/></svg><svg width="22.92" height="47.09" viewBox="-1 -1 22.92 47.09" x="66" y="52.47" xmlns="http://www.w3.org/2000/svg"><path data-name="Path 353" d="M20.097 22.571H13.81v22.522H4.431V22.571H0v-7.936h4.432V9.482a11.152 11.152 0 0 1 .721-4.071 7.91 7.91 0 0 1 2.834-3.762A9.9 9.9 0 0 1 13.862 0l6.957.052v7.73H15.77a2 2 0 0 0-1.288.412 2.169 2.169 0 0 0-.67 1.752v4.689h7.111z" fill="#fff"/></svg><svg width="46.83" height="47.09" viewBox="-1 -1 46.83 47.09" x="88.92" y="52.47" xmlns="http://www.w3.org/2000/svg"><path data-name="Path 375" d="M41.483 0a3.274 3.274 0 0 1 2.37.952 3.091 3.091 0 0 1 .979 2.293v38.649a3 3 0 0 1-.979 2.267 3.261 3.261 0 0 1-2.319.929H3.298a3.251 3.251 0 0 1-2.319-.929A3 3 0 0 1 0 41.894V3.245A3.086 3.086 0 0 1 .979.952 3.272 3.272 0 0 1 3.349 0h38.133zM12.986 13.627a3.609 3.609 0 0 0 0-5.05 3.745 3.745 0 0 0-2.731-1 3.839 3.839 0 0 0-2.757 1 3.34 3.34 0 0 0-1.056 2.525 3.376 3.376 0 0 0 1.031 2.525 3.671 3.671 0 0 0 2.68 1h.052a3.806 3.806 0 0 0 2.781-1zm.618 3.789H6.851v20.355h6.751zm24.374 8.657q0-4.481-2.216-6.9a8 8 0 0 0-9.636-1.083 7.981 7.981 0 0 0-2.01 2.217v-2.886h-6.751q.05 1.185 0 10.873v9.48h6.751v-11.39a5.061 5.061 0 0 1 .206-1.649 4.1 4.1 0 0 1 1.237-1.7 3.423 3.423 0 0 1 2.267-.774 2.97 2.97 0 0 1 2.628 1.288 6.009 6.009 0 0 1 .773 3.3v10.923h6.751z" fill="#fff"/></svg><svg data-name="Layer 1" width="66" height="50" viewBox="-1 -1 66 50" y="52.47" xmlns="http://www.w3.org/2000/svg"><path d="M0 0v8l32 16L64 8V0H0zm0 16v32h64V16L32 32z" fill="#2f5572"/></svg><svg data-name="Layer 1" width="66" height="66" viewBox="-1 -1 66 66" y="102.47" xmlns="http://www.w3.org/2000/svg"><path d="M32 0l-8 24H0l20 16-8 24 20-16 20 16-8-24 20-16H40z" fill="#d4953f"/></svg><svg data-name="Layer 1" width="36.75" height="44" viewBox="-1 -1 36.75 44" x="136.23" y="102.47" xmlns="http://www.w3.org/2000/svg"><path d="M22.13 29.15v5q0 1.57-.91 1.57a1.5 1.5 0 0 1-1.06-.52v-7.11a1.5 1.5 0 0 1 1.06-.54q.91 0 .91 1.6zm7.92 0v1.08h-2.1v-1.06q0-1.59 1.06-1.59t1 1.59zM7.42 24h2.5v-2.14h-7.3v2.2h2.46V37.4h2.34V24zm6.75 13.4h2.09V25.82h-2.09v8.86a1.86 1.86 0 0 1-1.31 1 .48.48 0 0 1-.49-.47 6.52 6.52 0 0 1 0-.82v-8.57h-2.14V35a5.79 5.79 0 0 0 .19 1.71 1.26 1.26 0 0 0 1.36.87 3.43 3.43 0 0 0 2.39-1.43v1.25zm10.05-3.47v-4.6A8.33 8.33 0 0 0 24 27a1.63 1.63 0 0 0-1.67-1.31A2.82 2.82 0 0 0 20.16 27v-5.1h-2.08v15.5h2.09v-1.13a2.91 2.91 0 0 0 2.18 1.31A1.62 1.62 0 0 0 24 36.27a8.61 8.61 0 0 0 .22-2.35zm7.92-.24v-.3H30a11.6 11.6 0 0 1 0 1.43.9.9 0 0 1-.94.85q-1.08 0-1.08-1.61V32h4.19v-2.41a4.65 4.65 0 0 0-.66-2.72 3.2 3.2 0 0 0-5 0 4.52 4.52 0 0 0-.66 2.72v4.05a4.4 4.4 0 0 0 .66 2.72 3 3 0 0 0 2.49 1.2 2.9 2.9 0 0 0 3-2.51 10.31 10.31 0 0 0 .09-1.36zM17.89 12.3V7.38q0-1.61-1-1.61t-1 1.61v4.92q0 1.64 1 1.64t1-1.64zm16.85 17.6a40.6 40.6 0 0 1-.61 8.2 4.45 4.45 0 0 1-1.36 2.32 4.1 4.1 0 0 1-2.39 1.08 125.31 125.31 0 0 1-13 .49 125.31 125.31 0 0 1-13-.49A4.15 4.15 0 0 1 2 40.42 4.28 4.28 0 0 1 .63 38.1 39.76 39.76 0 0 1 0 29.9a40.6 40.6 0 0 1 .61-8.2A4.45 4.45 0 0 1 2 19.37a4.25 4.25 0 0 1 2.41-1.1q4.29-.47 13-.47t13 .47a4.4 4.4 0 0 1 3.75 3.42 39.76 39.76 0 0 1 .58 8.21zM11.35 0h2.39l-2.83 9.35v6.35H8.57V9.35a39.68 39.68 0 0 0-1.43-5Q6.27 2 5.61 0H8.1l1.67 6.16zM20 7.8v4.1a4.59 4.59 0 0 1-.66 2.76 2.88 2.88 0 0 1-2.49 1.19 2.9 2.9 0 0 1-2.46-1.19 4.68 4.68 0 0 1-.66-2.76V7.8a4.59 4.59 0 0 1 .66-2.74 2.9 2.9 0 0 1 2.46-1.19 2.88 2.88 0 0 1 2.49 1.19A4.59 4.59 0 0 1 20 7.8zM27.87 4v11.7h-2.13v-1.27a3.37 3.37 0 0 1-2.41 1.45A1.31 1.31 0 0 1 22 15a6 6 0 0 1-.19-1.76V4h2.13v8.6a6.14 6.14 0 0 0 0 .82.49.49 0 0 0 .47.52 1.87 1.87 0 0 0 1.31-1V4h2.16z" fill="#fff"/></svg></svg>