<svg xmlns="http://www.w3.org/2000/svg" width="238.64" height="50.465" viewBox="0 0 238.64 50.465">
  <g id="alignable" transform="translate(-156.189 -252.459)">
    <g id="logo-alignable-text" transform="translate(156.189 252.459)">
      <g id="logo-svg" transform="translate(0 0)">
        <path id="logo-svg-fill" d="M53.3,9.089A3.241,3.241,0,0,0,56.544,5.88,3.231,3.231,0,0,0,53.3,2.718a3.186,3.186,0,1,0,0,6.37" transform="translate(47.471 2.388)" fill="#fff" fill-rule="evenodd"/>
        <g id="logo-svg-element-group" transform="translate(0 0)">
          <path id="Fill-2" d="M122.19,23.829c0-2.778,1.72-5.795,5.011-5.795.686,0,2.85.143,2.85,2.394,0,.479-.1,3.737-5.551,3.737-1.769,0-2.311-.241-2.311-.336Zm18.273,6.227c-.39-.67-2.061-2.778-2.061-2.778a9.1,9.1,0,0,1-8.45,5.029c-7.174,0-7.32-4.024-7.32-4.263a.179.179,0,0,1,.1-.048,15.374,15.374,0,0,0,2.307.192c10.121,0,10.318-6.946,10.318-7.616v-.048c0-6.706-6.681-6.8-7.368-6.8h-.049c-6.829,0-11.251,4.79-11.251,11.591a18.132,18.132,0,0,0,.175,2.73c-.914,2.442-2.535,3.018-3.711,3.018-2.013,0-2.408-1.82-2.408-2.874V1.317h-7.318V5.628h2.063V30.3a5.851,5.851,0,0,0,6.19,5.892,7.779,7.779,0,0,0,6.891-3.738c1.627,2.244,4.654,4.073,10.3,4.073,7.861,0,11.692-4.742,11.692-6.179a.463.463,0,0,0-.1-.288Z" transform="translate(98.078 1.059)" fill="#fff" fill-rule="evenodd"/>
          <path id="Fill-4" d="M148.731,31.924a7.474,7.474,0,0,1-2.357-.432V18.561a18.926,18.926,0,0,1,2.75-.336c1.033,0,6.387.239,6.387,6.466,0,7.041-5.551,7.233-6.78,7.233Zm-18.863-5.748a5.224,5.224,0,0,1-5.207,5.269c-4.078,0-4.127-4.216-4.127-5.461,0-6.131,4.471-7.9,6.877-7.9a7.182,7.182,0,0,1,2.456.287v7.807Zm-46.942-.1a5.2,5.2,0,0,1-5.06,5.317c-4.078,0-4.175-4.263-4.175-5.46,0-6.084,4.225-7.855,6.779-7.855a7.174,7.174,0,0,1,2.456.287V26.08Zm66.592-12.262a14.027,14.027,0,0,0-3.144.527V1.317H139.1V5.628h2.064V28.165c-.919,2.387-2.522,2.992-3.685,2.992-2.014,0-2.407-1.868-2.407-2.874V14.633a29.346,29.346,0,0,0-6.632-.91c-10.119,0-13.41,6.849-13.41,12.98a14.53,14.53,0,0,0,.219,2.44,3.651,3.651,0,0,1-3.2,1.967,2.429,2.429,0,0,1-2.456-2.73V20.62c0-4.5-3.193-6.514-7.024-6.514a7.952,7.952,0,0,0-6.19,2.443c-.1.144-.148.191-.2.191s-.05-.1-.05-.143V14.585h-7.32v.007a8.212,8.212,0,0,1-1.5-.125v.006a29.052,29.052,0,0,0-5.821-.7c-10.021,0-13.264,6.513-13.264,13.028a11.884,11.884,0,0,0,.109,1.45c-.957,2.313-2.494,2.86-3.645,2.86-2.064,0-2.408-1.82-2.408-2.874V14.585H54.925V18.9h2.114v8.95c-.9,2.61-2.576,3.216-3.783,3.216-2.015,0-2.408-1.82-2.408-2.874V1.317H43.529V5.628h2.063V30.3a5.851,5.851,0,0,0,6.189,5.892A7.884,7.884,0,0,0,57.917,33.5a5.941,5.941,0,0,0,5.261,2.732,7.869,7.869,0,0,0,6.714-3.379,7.111,7.111,0,0,0,6.451,3.427,8.149,8.149,0,0,0,6.239-2.347s.148-.191.246-.191c.05,0,.1.048.1.239v2.491c0,2.778-.493,8.574-7.321,8.574-.393,0-1.079-.048-1.079-.048V41.407H70.006v7.52a15.208,15.208,0,0,0,4.273.479c13.754,0,13.754-11.112,13.754-14.082V18.9h.994V18.9h2.151V35.66h5.256V24.451c0-2.969,1.67-5.556,4.716-5.556a3.1,3.1,0,0,1,3.242,3.161v8.287a5.808,5.808,0,0,0,6.14,5.891,7.924,7.924,0,0,0,6.328-2.882,7.421,7.421,0,0,0,6.572,3.217,8.159,8.159,0,0,0,7.122-3.688c.05-.049.1-.144.148-.144s.05.048.1.191c.64,1.963,2.555,3.3,5.208,3.3a8.017,8.017,0,0,0,5.159-1.743v.546s2.015,1.341,7.368,1.341c11.642,0,12.427-9.435,12.427-11.5,0-10.825-9.677-11.065-11.445-11.065Z" transform="translate(41.278 1.059)" fill="#fff" fill-rule="evenodd"/>
          <path id="Fill-5" d="M48.39,21.817,43.231,8.262c-.048-.143-.1-.239-.146-.239s-.1.1-.148.239l-5.01,13.555ZM25.942,35.66l11.984-29.6H35.273V1.317h11.3l12.035,29.6h2.651V35.66H53.6l-3.439-9.053h-14L32.72,35.66Z" transform="translate(24.6 1.059)" fill="#fff" fill-rule="evenodd"/>
          <path id="Fill-6" d="M37.806,12.884A19.432,19.432,0,0,0,19.433.1,19.962,19.962,0,0,0,15.38.515a19.6,19.6,0,0,0-2.322.637c.1.295.2.589.295.883.478,1.432.975,2.925,1.5,4.414.305.872.621,1.738.943,2.591a41.321,41.321,0,0,0,3.317,7.123,11.544,11.544,0,0,0,1.634,2.083A3.767,3.767,0,0,0,23.3,19.517c1.309,0,2.525-.984,3.662-2.567a64.475,64.475,0,0,1,2.828,6.714,9.821,9.821,0,0,1-6.487,2.444h0a9.624,9.624,0,0,1-5.117-1.454,11.827,11.827,0,0,1-2.018-1.536,23.447,23.447,0,0,1-4.587-6.763q-.685-1.417-1.312-2.947c-1.164-2.833-2.2-5.9-3.219-8.953a19.308,19.308,0,0,0-1.936,1.8A18.547,18.547,0,0,0,3.974,30.515,19.146,19.146,0,0,0,5.814,32.55c.7-1.936,1.362-3.925,1.987-5.8.833-2.508,1.676-5.029,2.588-7.433a21.313,21.313,0,0,0,4.916,6.27c-.37,1.08-.726,2.154-1.073,3.194-.852,2.565-1.712,5.148-2.645,7.6a19.679,19.679,0,0,0,2.263.82,19.865,19.865,0,0,0,5.584.8,19.623,19.623,0,0,0,13.459-5.3,19.218,19.218,0,0,0,1.859-2.01c-.216-.64-.429-1.282-.643-1.924-.475-1.428-.972-2.92-1.494-4.4q-.461-1.311-.942-2.593a41.178,41.178,0,0,0-3.315-7.123,11.3,11.3,0,0,0-1.634-2.084,6.236,6.236,0,0,0-.616-.534,3.226,3.226,0,0,0-1.94-.737c-1.308,0-2.528.982-3.664,2.567a64.528,64.528,0,0,1-2.83-6.714q.341-.286.7-.543a9.647,9.647,0,0,1,5.8-1.9h.006A9.614,9.614,0,0,1,29.28,6.152,11.825,11.825,0,0,1,31.3,7.688a23.436,23.436,0,0,1,4.585,6.765Q36.57,15.871,37.2,17.4c.529,1.29,1.032,2.629,1.518,3.993a18.241,18.241,0,0,0-.907-8.512" transform="translate(0 -0.098)" fill="#fff" fill-rule="evenodd"/>
        </g>
      </g>
    </g>
  </g>
</svg>
