<?xml version="1.0" encoding="utf-8"?>
<!-- Generator: Adobe Illustrator 23.0.1, SVG Export Plug-In . SVG Version: 6.00 Build 0)  -->
<svg version="1.1" id="Layer_1" xmlns="http://www.w3.org/2000/svg" xmlns:xlink="http://www.w3.org/1999/xlink" x="0px" y="0px"
	 viewBox="0 0 45 45" style="enable-background:new 0 0 45 45;" xml:space="preserve">
<style type="text/css">
	.st0{fill-rule:evenodd;clip-rule:evenodd;fill:#FFFFFF;}
</style>
<g id="alignable" transform="translate(-156.189 -252.459)">
	<g id="logo-alignable-text" transform="translate(156.189 252.459)">
		<g id="logo-svg" transform="translate(0 0)">
			<g id="logo-svg-element-group" transform="translate(0 0)">
				<path class="st0" d="M40.2,36c-0.3-0.7-0.5-1.5-0.7-2.2c-0.5-1.7-1.1-3.4-1.7-5.1c-0.4-1-0.7-2-1.1-3c-1-2.9-2.3-5.6-3.8-8.2
					c-0.5-0.9-1.2-1.7-1.9-2.4c-0.2-0.2-0.5-0.4-0.7-0.6c-0.6-0.5-1.4-0.8-2.2-0.9c-1.5,0-2.9,1.1-4.2,3c-1.2-2.5-2.3-5.1-3.3-7.8
					c0.3-0.2,0.5-0.4,0.8-0.6c1.9-1.4,4.3-2.2,6.7-2.2h0c2.1,0,4.1,0.6,5.9,1.7c0.8,0.5,1.6,1.1,2.3,1.8c2.2,2.3,4,4.9,5.3,7.8
					c0.5,1.1,1,2.2,1.5,3.4c0.6,1.5,1.2,3,1.8,4.6c0.4-3.3,0.1-6.7-1-9.9l0,0C40.5,6.4,32,0.5,22.5,0.6c-1.6,0-3.1,0.2-4.7,0.5
					c-0.9,0.2-1.8,0.4-2.7,0.7c0.1,0.3,0.2,0.7,0.3,1c0.6,1.7,1.1,3.4,1.7,5.1c0.4,1,0.7,2,1.1,3c1,2.9,2.3,5.6,3.8,8.2
					c0.5,0.9,1.2,1.7,1.9,2.4c0.8,0.9,1.8,1.4,3,1.5c1.5,0,2.9-1.1,4.2-3c1.2,2.5,2.3,5.1,3.3,7.8c-2.1,1.8-4.7,2.8-7.5,2.8
					c-2.1,0-4.1-0.6-5.9-1.7c-0.8-0.5-1.6-1.1-2.3-1.8c-2.2-2.3-4-4.9-5.3-7.8c-0.5-1.1-1-2.2-1.5-3.4c-1.3-3.3-2.5-6.8-3.7-10.4
					C7.4,6.2,6.6,6.9,5.9,7.7C-1.4,15.4-2,27.4,4.6,35.8c0.7,0.8,1.4,1.6,2.1,2.4c0.8-2.2,1.6-4.5,2.3-6.7c1-2.9,1.9-5.8,3-8.6
					c1.4,2.8,3.4,5.2,5.7,7.3c-0.4,1.3-0.8,2.5-1.2,3.7c-1,3-2,6-3.1,8.8c0.9,0.4,1.7,0.7,2.6,0.9c2.1,0.6,4.3,0.9,6.5,0.9
					c5.8,0,11.4-2.2,15.6-6.1C38.8,37.6,39.6,36.8,40.2,36z"/>
			</g>
		</g>
	</g>
</g>
</svg>
