<svg xmlns="http://www.w3.org/2000/svg" width="45.048" height="28.032" viewBox="0 0 45.048 28.032">
  <g id="behance" transform="translate(0)">
    <path id="Path_446" data-name="Path 446" d="M179.921,150.459A7.622,7.622,0,0,1,181,154.634a8.115,8.115,0,0,1-1.237,4.43,7.8,7.8,0,0,1-2.01,2.217,7.487,7.487,0,0,1-3.169,1.391,20.353,20.353,0,0,1-3.942.359H158.02V135h13.5q5.152.1,7.266,2.989a7.068,7.068,0,0,1,1.288,4.3,6.2,6.2,0,0,1-1.288,4.1,6.664,6.664,0,0,1-2.113,1.6A6.143,6.143,0,0,1,179.921,150.459Zm-15.459-4.43h5.926a5.674,5.674,0,0,0,2.989-.7,2.639,2.639,0,0,0,1.134-2.448,2.5,2.5,0,0,0-1.494-2.577,10.363,10.363,0,0,0-3.35-.464h-5.2v6.184Zm10.615,8.141a3,3,0,0,0-1.8-2.988,6.675,6.675,0,0,0-2.783-.464h-6.029v7.472h5.926a6.24,6.24,0,0,0,2.834-.514A3.552,3.552,0,0,0,175.077,154.17Zm27.827-4.535a25.216,25.216,0,0,1,.155,3.968H188.475q.1,3.04,2.061,4.224a5.269,5.269,0,0,0,2.937.774,4.411,4.411,0,0,0,2.886-.928,3.859,3.859,0,0,0,1.082-1.391H202.8a6.543,6.543,0,0,1-1.958,3.659q-2.68,2.937-7.575,2.936a10.885,10.885,0,0,1-7.034-2.474q-3.067-2.472-3.066-8.038,0-5.258,2.757-8.039a9.672,9.672,0,0,1,7.189-2.783,11.493,11.493,0,0,1,4.715.928,8.173,8.173,0,0,1,3.478,2.989A9.92,9.92,0,0,1,202.9,149.635Zm-4.174-10.667H187.393v-2.834H198.73Zm-1.082,11.182a4.426,4.426,0,0,0-1.417-3.194,4.619,4.619,0,0,0-3.118-1.082A4.111,4.111,0,0,0,190,147.033a5.658,5.658,0,0,0-1.417,3.118Z" transform="translate(-158.02 -135)" fill="#fff"/>
  </g>
</svg>
