<?xml version="1.0" encoding="utf-8"?>
<!-- Generator: Adobe Illustrator 23.0.2, SVG Export Plug-In . SVG Version: 6.00 Build 0)  -->
<svg version="1.1" id="linkedin" xmlns="http://www.w3.org/2000/svg" xmlns:xlink="http://www.w3.org/1999/xlink" x="0px" y="0px"
	 viewBox="0 0 29.6 30" style="enable-background:new 0 0 29.6 30;" xml:space="preserve">
<style type="text/css">
	.st0{fill:#FFFFFF;}
</style>
<path id="Path_375" class="st0" d="M27.4,0C28,0,28.5,0.2,29,0.6c0.4,0.4,0.7,0.9,0.6,1.5v25.7c0,0.6-0.2,1.1-0.6,1.5
	c-0.4,0.4-1,0.6-1.5,0.6H2.2c-0.6,0-1.1-0.2-1.5-0.6C0.2,29,0,28.4,0,27.9V2.2C0,1.6,0.2,1,0.6,0.6C1.1,0.2,1.6,0,2.2,0L27.4,0
	L27.4,0z M8.6,9.1c0.9-0.9,0.9-2.4,0-3.4C8.1,5.2,7.4,5,6.8,5C6.1,5,5.4,5.3,5,5.7c-0.5,0.4-0.7,1-0.7,1.7c0,0.6,0.2,1.2,0.7,1.7
	C5.4,9.5,6,9.8,6.7,9.7h0C7.4,9.8,8.1,9.5,8.6,9.1z M9,11.6H4.5v13.5H9L9,11.6z M25.1,17.3c0-2-0.5-3.5-1.5-4.6
	c-1.7-1.7-4.3-2-6.4-0.7c-0.5,0.4-1,0.9-1.3,1.5v-1.9h-4.5c0,0.5,0,2.9,0,7.2v6.3h4.5v-7.6c0-0.4,0-0.7,0.1-1.1
	c0.2-0.4,0.5-0.8,0.8-1.1c0.4-0.3,1-0.5,1.5-0.5c0.7,0,1.3,0.3,1.7,0.9c0.4,0.7,0.6,1.4,0.5,2.2v7.3h4.5L25.1,17.3z"/>
</svg>
