<svg id="linkedin" xmlns="http://www.w3.org/2000/svg" width="44.832" height="45.09" viewBox="0 0 44.832 45.09">
  <path id="Path_375" data-name="Path 375" d="M127.832,633.073a3.274,3.274,0,0,1,2.37.952,3.091,3.091,0,0,1,.979,2.293v38.649a3,3,0,0,1-.979,2.267,3.261,3.261,0,0,1-2.319.929H89.647a3.251,3.251,0,0,1-2.319-.929,3,3,0,0,1-.979-2.267V636.318a3.086,3.086,0,0,1,.979-2.293,3.272,3.272,0,0,1,2.37-.952h38.133ZM99.335,646.7a3.609,3.609,0,0,0,0-5.05,3.745,3.745,0,0,0-2.731-1,3.839,3.839,0,0,0-2.757,1,3.34,3.34,0,0,0-1.056,2.525,3.376,3.376,0,0,0,1.031,2.525,3.671,3.671,0,0,0,2.68,1h.052A3.806,3.806,0,0,0,99.335,646.7Zm.618,3.789H93.2v20.355h6.751Zm24.374,8.657q0-4.481-2.216-6.9a8,8,0,0,0-9.636-1.083,7.981,7.981,0,0,0-2.01,2.217v-2.886h-6.751q.05,1.185,0,10.873v9.48h6.751V659.457a5.061,5.061,0,0,1,.206-1.649,4.1,4.1,0,0,1,1.237-1.7,3.423,3.423,0,0,1,2.267-.774,2.97,2.97,0,0,1,2.628,1.288,6.009,6.009,0,0,1,.773,3.3v10.923h6.751Z" transform="translate(-86.349 -633.073)" fill="#fff"/>
</svg>
